<?xml version="1.0" standalone="no"?>
<!DOCTYPE svg PUBLIC "-//W3C//DTD SVG 1.1//EN" "http://www.w3.org/Graphics/SVG/1.1/DTD/svg11.dtd" >
<svg>
<metadata>
Created by FontForge 20090914 at Tue Mar 17 08:44:33 2015
 By www-data
Created with FontForge 2.0 (http://fontforge.sf.net)
</metadata>
<defs>
<font id="MagisterSymbols" horiz-adv-x="512" >
  <font-face 
    font-family="MagisterSymbols"
    font-weight="400"
    font-stretch="normal"
    units-per-em="512"
    panose-1="2 0 5 9 0 0 0 0 0 0"
    ascent="410"
    descent="-102"
    x-height="410.001"
    cap-height="410.001"
    bbox="-1.10779 -103 513.108 410.5"
    underline-thickness="25"
    underline-position="-52"
    unicode-range="U+0021-U+0071"
  />
<missing-glyph 
d="M17 0v341h136v-341h-136zM34 17h102v307h-102v-307z" />
    <glyph glyph-name=".notdef" 
d="M17 0v341h136v-341h-136zM34 17h102v307h-102v-307z" />
    <glyph glyph-name="exclam" unicode="!" 
d="M256 410c70.667 0 131 -25 181 -75s75 -110.333 75 -181s-25 -131 -75 -181s-110.333 -75 -181 -75s-131 25 -181 75s-75 110.333 -75 181s25 131 75 181s110.333 75 181 75zM432 260c6.66699 9.33301 5 17.6689 -5 25.002l-30 21
c-9.33301 7.33301 -18 5.66602 -26 -5.00098l-149 -220l-68 69c-8.66699 8.66699 -17.334 8.66699 -26.001 0l-26 -26c-8.66699 -8.66699 -8.66699 -17.334 0 -26.001l105 -106c6.66699 -6.66699 14.334 -10 23.001 -10c10 0 17.667 4.33301 23 13z" />
    <glyph glyph-name="quotedbl" unicode="&#x22;" 
d="M506 147c9.33301 -9.33301 9.33301 -18.666 0 -27.999c-4 -4 -8.66699 -6 -14 -6s-10 2 -14 6l-222 222l-222 -221c-9.33301 -9.33301 -18.666 -9.33301 -27.999 0s-9.33301 18.666 0 27.999l236 236c9.33301 9.33301 18.666 9.33301 27.999 0l106 -107v97
c0 5.33301 2 10 6 14s8.66699 6 14 6h20c5.33301 0 10 -2 14 -6s6 -8.66699 6 -14v-157zM35 84l221.002 220l220 -220v-111c0 -16.667 -5.83301 -30.834 -17.5 -42.501s-25.834 -17.5 -42.501 -17.5h-321c-16.667 0 -30.834 5.83301 -42.501 17.5s-17.5 25.834 -17.5 42.501
v111zM316.002 94c0 5.33301 -2 10 -6 14s-8.66699 6 -14 6h-80c-5.33301 0 -10.166 -2 -14.499 -6s-6.5 -8.66699 -6.5 -14v-121c0 -5.33301 2.16699 -10 6.5 -14s9.16602 -6 14.499 -6h80c5.33301 0 10 2 14 6s6 8.66699 6 14v121z" />
    <glyph glyph-name="numbersign" unicode="#" 
d="M505 -63c4.66699 -4.66699 7 -10.167 7 -16.5s-2.33301 -11.833 -7 -16.5c-4 -4 -9.33301 -6 -16 -6c-7.33301 0 -13 2 -17 6l-465 466c-4.66699 4.66699 -7 10.167 -7 16.5s2.33301 11.833 7 16.5s10.167 7 16.5 7s11.833 -2.33301 16.5 -7l125 -126l122 119
c10 10 20.167 13.167 30.5 9.5s15.5 -12.5 15.5 -26.5v-269zM54 246l23 0.000976562l256 -255v-60c0 -16 -5 -26.333 -15 -31s-20.667 -1.33398 -32 9.99902l-152 150h-80c-6.66699 0 -12.334 2.16699 -17.001 6.5s-7 9.83301 -7 16.5v140c0 6.66699 2.33301 12.167 7 16.5
s10.334 6.5 17.001 6.5z" />
    <glyph glyph-name="dollar" unicode="$" 
d="M416 410c26.667 0 49.334 -9.33301 68.001 -28s28 -41.334 28 -68.001v-320c0 -26.667 -9.33301 -49.334 -28 -68.001s-41.334 -28 -68.001 -28h-320c-26.667 0 -49.334 9.33301 -68.001 28s-28 41.334 -28 68.001v320c0 26.667 9.33301 49.334 28 68.001
s41.334 28 68.001 28h320zM217 35v237c0 5.33301 -2 9.83301 -6 13.5s-8.66699 5.5 -14 5.5h-39c-5.33301 0 -10 -1.83301 -14 -5.5s-6 -8.16699 -6 -13.5v-237c0 -5.33301 2 -9.83301 6 -13.5s8.66699 -5.5 14 -5.5h39c5.33301 0 10 1.83301 14 5.5s6 8.16699 6 13.5z
M374 35v237c0 5.33301 -2 9.83301 -6 13.5s-8.66699 5.5 -14 5.5h-39c-5.33301 0 -10 -1.83301 -14 -5.5s-6 -8.16699 -6 -13.5v-237c0 -5.33301 2 -9.83301 6 -13.5s8.66699 -5.5 14 -5.5h39c5.33301 0 10 1.83301 14 5.5s6 8.16699 6 13.5z" />
    <glyph glyph-name="percent" unicode="%" 
d="M512 -6c0 -26.667 -9.33301 -49.334 -28 -68.001s-41.334 -28 -68.001 -28h-320c-26.667 0 -49.334 9.33301 -68.001 28s-28 41.334 -28 68.001v320c0 26.667 9.33301 49.334 28 68.001s41.334 28 68.001 28h320c26.667 0 49.334 -9.33301 68.001 -28
s28 -41.334 28 -68.001v-320zM394 152l-189.001 114.001c-15.333 4.66699 -24.666 -1 -27.999 -17v-195c0 -7.33301 3.16699 -12.833 9.5 -16.5s12.5 -3.83398 18.5 -0.500977z" />
    <glyph glyph-name="ampersand" unicode="&#x26;" 
d="M257 395c10 10 20 13.333 30 10s15 -12.333 15 -27v-445c0 -16 -4.83301 -26.167 -14.5 -30.5s-20.167 -0.833008 -31.5 10.5l-151 148h-80c-6.66699 0 -12.167 2.16699 -16.5 6.5s-6.5 9.83301 -6.5 16.5v139c0 6.66699 2.16699 12.167 6.5 16.5s9.83301 6.5 16.5 6.5
h80zM343 63c-12 0 -19.667 6.00098 -23 18.001c-1.33301 6 -0.333008 11.833 3 17.5s8 9.16699 14 10.5c10 2.66699 18.167 8.16699 24.5 16.5s9.5 17.833 9.5 28.5s-3.16699 20 -9.5 28s-14.5 13.333 -24.5 16c-6 1.33301 -10.667 4.83301 -14 10.5s-4.33301 11.5 -3 17.5
s5 10.667 11 14s12 4.33301 18 3c20.667 -5.33301 37.334 -16.333 50.001 -33s19 -35.334 19 -56.001c0 -21.333 -6.33301 -40.333 -19 -57s-29.334 -27.667 -50.001 -33c-1.33301 -0.666992 -3.33301 -1 -6 -1zM402 -11.999c-9.33301 0 -15.999 4.33496 -19.999 13.002
c-7.33301 13.333 -4.33301 23.666 9 30.999c22.667 12 40.5 29 53.5 51s19.5 45.667 19.5 71s-6.5 49 -19.5 71s-30.833 39 -53.5 51c-13.333 7.33301 -16.333 17.666 -9 30.999s17.666 16.333 30.999 9c30 -16 53.667 -38.5 71 -67.5s26 -60.5 26 -94.5
s-8.66699 -65.667 -26 -95s-41 -52 -71 -68c-4 -2 -7.66699 -3 -11 -3z" />
    <glyph glyph-name="quotesingle" unicode="'" 
d="M255 395c10 10 20 13.333 30 10s15 -12.333 15 -27v-445c0 -16 -4.83301 -26.167 -14.5 -30.5s-20.167 -0.833008 -31.5 10.5l-151 148h-80c-6.66699 0 -12.167 2.16699 -16.5 6.5s-6.5 9.83301 -6.5 16.5v139c0 6.66699 2.16699 12.167 6.5 16.5s9.83301 6.5 16.5 6.5
h80z" />
    <glyph glyph-name="parenleft" unicode="(" 
d="M512 -70c0 -9.33301 -3 -17 -9 -23s-13.667 -9 -23 -9h-448c-9.33301 0 -17 3 -23 9s-9 13.667 -9 23v448c0 9.33301 3 17 9 23s13.667 9 23 9h448c9.33301 0 17 -3 23 -9s9 -13.667 9 -23v-448z" />
    <glyph glyph-name="parenright" unicode=")" 
d="M512 114c0 -5.33301 -2 -9.83301 -6 -13.5s-8.66699 -5.5 -14 -5.5h-78c-5.33301 0 -10 1.83301 -14 5.5s-6 8.16699 -6 13.5v79c0 5.33301 2 10 6 14s8.66699 6 14 6h78c5.33301 0 10 -2 14 -6s6 -8.66699 6 -14v-79zM315 114c0 -5.33301 -2 -9.83301 -6 -13.5
s-8.66699 -5.5 -14 -5.5h-78c-5.33301 0 -10 1.83301 -14 5.5s-6 8.16699 -6 13.5v79c0 5.33301 2 10 6 14s8.66699 6 14 6h78c5.33301 0 10 -2 14 -6s6 -8.66699 6 -14v-79zM118 114c0 -5.33301 -2 -9.83301 -6 -13.5s-8.66699 -5.5 -14 -5.5h-78
c-5.33301 0 -10 1.83301 -14 5.5s-6 8.16699 -6 13.5v79c0 5.33301 2 10 6 14s8.66699 6 14 6h78c5.33301 0 10 -2 14 -6s6 -8.66699 6 -14v-79z" />
    <glyph glyph-name="asterisk" unicode="*" 
d="M158 35v40h196v-40h-196zM158 -24v40h196v-40h-196zM453 252c16.667 0 30.667 -5.66699 42 -17s17 -25.333 17 -42v-118c0 -16.667 -5.66699 -30.667 -17 -42s-25.333 -17 -42 -17h-20v-59c0 -16.667 -5.66699 -30.667 -17 -42s-25.333 -17 -42 -17h-237
c-16.667 0 -30.667 5.66699 -42 17s-17 25.333 -17 42v59h-19c-16.667 0 -30.667 5.66699 -42 17s-17 25.333 -17 42v118c0 16.667 5.66699 30.667 17 42s25.333 17 42 17h19v118c0 26.667 16.333 40 49 40h247h10c32.667 0 49 -13.333 49 -40v-118h20zM118 370v-118h275
v118h-9h-247h-10h-9zM393 -43v157h-275v-157c0 -5.33301 1.83301 -10 5.5 -14s8.16699 -6 13.5 -6h237c5.33301 0 9.83301 2 13.5 6s5.5 8.66699 5.5 14z" />
    <glyph glyph-name="plus" unicode="+" 
d="M307 410l-13 -345h-76l-13 345h102zM307 -102h-102v85h102v-85z" />
    <glyph glyph-name="comma" unicode="," 
d="M501 -23c7.33301 -7.33301 10.999 -16.001 10.999 -26.001s-3.66699 -18.667 -11 -26l-17 -17c-6.66699 -6.66699 -15 -10 -25 -10s-18.667 3.33301 -26 10l-92 92c-12 12 -14 26.333 -6 43l-18 17c-35.333 -28 -75.666 -42 -120.999 -42
c-54 0 -100.167 19.167 -138.5 57.5s-57.5 84.5 -57.5 138.5s19.167 100.167 57.5 138.5s84.5 57.5 138.5 57.5s100 -19.167 138 -57.5s57 -84.5 57 -138.5c0 -45.333 -14 -85.666 -42 -120.999l18 -18c16 8 30 6 42 -6zM35.999 213.999c0 -44 15.667 -81.667 47 -113
s69 -47 113 -47s81.5 15.667 112.5 47s46.5 69 46.5 113s-15.5 81.5 -46.5 112.5s-68.5 46.5 -112.5 46.5s-81.667 -15.5 -113 -46.5s-47 -68.5 -47 -112.5z" />
    <glyph glyph-name="hyphen" unicode="-" 
d="M512 122l-76 -12.999c-3.33301 -15.333 -10.333 -32.333 -21 -51l45 -62l-45 -46l-63 45c-18.667 -10 -35.667 -17.333 -51 -22l-14 -75h-64l-12 75c-15.333 3.33301 -32.333 10.333 -51 21l-63 -44l-45 46l44 62c-8 13.333 -15 30.333 -21 51l-75 13v64l75 13
c4.66699 18 11.667 35 21 51l-43 62l45 46l62 -45c18.667 10.667 35.667 17.667 51 21l12 76h64l14 -76c18 -5.33301 35 -12.333 51 -21l62 45l45 -46l-44 -63c9.33301 -16.667 16.333 -33.334 21 -50.001l76 -13v-64zM256 36.001c32.667 0 60.5 11.5 83.5 34.5
s34.5 50.833 34.5 83.5s-11.5 60.334 -34.5 83.001s-50.833 34 -83.5 34s-60.5 -11.333 -83.5 -34s-34.5 -50.334 -34.5 -83.001s11.5 -60.5 34.5 -83.5s50.833 -34.5 83.5 -34.5z" />
    <glyph glyph-name="period" unicode="." 
d="M0 232v39h313v-39h-313zM0 134v39h313v-39h-313zM0 36v39h313v-39h-313zM512 202l-88 -98l-88 98h176z" />
    <glyph glyph-name="slash" unicode="/" 
d="M0 232v39h313v-39h-313zM0 134v39h313v-39h-313zM0 36v39h313v-39h-313zM336 104l88 98l88 -98h-176z" />
    <glyph glyph-name="zero" unicode="0" 
d="M199 36v39h313v-39h-313zM199 134v39h313v-39h-313zM199 232v39h313v-39h-313zM137 66l-98 88l98 89v-177z" />
    <glyph glyph-name="one" unicode="1" 
d="M0 232v39h313v-39h-313zM0 134v39h313v-39h-313zM0 36v39h313v-39h-313zM375 241l98 -88l-98 -88v176z" />
    <glyph glyph-name="two" unicode="2" 
d="M436 410c26.667 0 46 -6.16699 58 -18.5s18 -31.833 18 -58.5v-359c0 -26.667 -6 -46 -18 -58s-31.333 -18 -58 -18h-360c-26.667 0 -46 6 -58 18s-18 31.333 -18 58v359c0 26.667 6 46.167 18 58.5s31.333 18.5 58 18.5h360zM473 -26v359
c0 15.333 -2.33301 25.333 -7 30s-14.667 7 -30 7h-360c-15.333 0 -25.333 -2.33301 -30 -7s-7 -14.667 -7 -30v-359c0 -15.333 2.33301 -25.333 7 -30s14.667 -7 30 -7h360c15.333 0 25.333 2.33301 30 7s7 14.667 7 30z" />
    <glyph glyph-name="three" unicode="3" 
d="M436 410c26.667 0 46 -6.16699 58 -18.5s18 -31.833 18 -58.5v-359c0 -26.667 -6 -46 -18 -58s-31.333 -18 -58 -18h-360c-26.667 0 -46 6 -58 18s-18 31.333 -18 58v359c0 26.667 6 46.167 18 58.5s31.333 18.5 58 18.5h360z" />
    <glyph glyph-name="four" unicode="4" 
d="M334 93c38 -14 70.5029 -30.3311 97.5029 -48.998s40.5 -38 40.5 -58v-16c0 -48 -71.667 -72 -215 -72c-144.667 0 -217 24 -217 72v16c0 19.333 13.667 38.666 41 57.999s59.333 36 96 50c9.33301 -25.333 21 -47.666 35 -66.999c11.333 25.333 22.666 45 33.999 59
c-22 3.33301 -38 12.333 -48 27c3.33301 8.66699 3 19 -1 31c-16.667 17.333 -30.334 38.666 -41.001 63.999s-16 51 -16 77c0 39.333 11 70 33 92s49.667 33 83 33s61 -11 83 -33s33 -52.667 33 -92c0 -54 -18.667 -101 -56 -141c-4.66699 -13.333 -5.66699 -24 -3 -32
c-10.667 -14.667 -26.334 -23.334 -47.001 -26.001c11.333 -14 22.666 -33.667 33.999 -59c6 8.66699 11.833 18.5 17.5 29.5s9.83398 19.833 12.501 26.5z" />
    <glyph glyph-name="five" unicode="5" 
d="M502 2c12.667 -21.333 14.5 -39.5 5.5 -54.5s-25.833 -22.5 -50.5 -22.5h-402c-24.667 0 -41.5 7.5 -50.5 22.5s-7.16699 33.167 5.5 54.5l201 348c12.667 21.333 27.667 32 45 32s32.333 -10.667 45 -32zM228 252c-6.66699 -7.33301 -9.99805 -17.002 -9.99805 -29.002
c0 -2.66699 1.33301 -11.667 4 -27s5.66699 -33.666 9 -54.999s5.66602 -39.666 6.99902 -54.999h36c1.33301 15.333 3.66602 33.833 6.99902 55.5s6.33301 40 9 55s4 23.833 4 26.5c0 12 -3.33301 21.667 -10 29s-16 11 -28 11s-21.333 -3.66699 -28 -11zM283.002 -2.00195
c7.33301 6.66699 11 15.667 11 27c0 10.667 -3.66699 19.667 -11 27s-16.333 11 -27 11s-19.667 -3.66699 -27 -11s-11 -16.333 -11 -27c0 -11.333 3.66699 -20.333 11 -27c8.66699 -7.33301 17.667 -11 27 -11s18.333 3.66699 27 11z" />
    <glyph glyph-name="six" unicode="6" 
d="M291 -102h-70c-6.66699 0 -12.167 2.16699 -16.5 6.5s-6.5 9.83301 -6.5 16.5v174h-175c-6.66699 0 -12.167 2.33301 -16.5 7s-6.5 10.334 -6.5 17.001v70c0 6.66699 2.16699 12.167 6.5 16.5s9.83301 6.5 16.5 6.5h175v174c0 6.66699 2.16699 12.334 6.5 17.001
s9.83301 7 16.5 7h70c6.66699 0 12.167 -2.33301 16.5 -7s6.5 -10.334 6.5 -17.001v-174h175c6.66699 0 12.167 -2.16699 16.5 -6.5s6.5 -9.83301 6.5 -16.5v-70c0 -6.66699 -2.16699 -12.334 -6.5 -17.001s-9.83301 -7 -16.5 -7h-175v-174
c0 -6.66699 -2.16699 -12.167 -6.5 -16.5s-9.83301 -6.5 -16.5 -6.5z" />
    <glyph glyph-name="seven" unicode="7" 
d="M500 365c6.66699 -4.66699 10.668 -10.666 12.001 -17.999s-0.333984 -14.333 -5.00098 -21l-271 -400c-8.66699 -12.667 -19.667 -19 -33 -19c-14 0 -26 5 -36 15l-159 159c-5.33301 5.33301 -8 12 -8 20s2.66699 14.667 8 20l39 39c5.33301 5.33301 12 8 20 8
s14.667 -2.66699 20 -8l103 -103l225 332c4.66699 6.66699 10.667 10.667 18 12s14.333 -0.333984 21 -5.00098z" />
    <glyph glyph-name="eight" unicode="8" 
d="M0 275h512l-251 -243z" />
    <glyph glyph-name="nine" unicode="9" 
d="M512 32h-512l251 243z" />
    <glyph glyph-name="colon" unicode=":" 
d="M378 410v-512l-244 250z" />
    <glyph glyph-name="semicolon" unicode=";" 
d="M134 410l244 -262l-244 -250v512z" />
    <glyph glyph-name="less" unicode="&#x3c;" 
d="M148 -77c-33.333 0 -65.332 15.3271 -95.999 45.9941c-38 38 -55.167 79.667 -51.5 125s27.5 90 71.5 134l53.5 52l58 54c16.333 14.667 25.166 22.667 26.499 24c10 8.66699 19.667 8.33398 29 -0.999023c4 -4 5.66699 -9 5 -15s-3 -10.667 -7 -14l-10 -10l-26 -23.5
l-34 -31l-36.5 -34.5l-30.5 -30c-73.333 -73.333 -79.666 -140.333 -18.999 -201c26.667 -26.667 52.834 -38 78.501 -34s56.167 23.667 91.5 59l182 183c26 26 39 47.667 39 65c0 2.66699 -0.5 5.5 -1.5 8.5s-2 5.5 -3 7.5s-2.83301 4.66699 -5.5 8l-5.5 7
c-1 1.33301 -3.5 3.83301 -7.5 7.5s-6.33301 5.83398 -7 6.50098l-9 9c-16.667 16.667 -34.334 22 -53.001 16c-18 -6.66699 -40 -23 -66 -49l-166 -167c-22.667 -23.333 -25.334 -43.666 -8.00098 -60.999s37.666 -14.666 60.999 8.00098l183 183c4 4 8.83301 6 14.5 6
s10.5 -2 14.5 -6s6 -8.83301 6 -14.5s-2 -10.5 -6 -14.5l-183 -183c-16.667 -17.333 -35.834 -27.166 -57.501 -29.499s-42.167 4.83398 -61.5 21.501c-16.667 16.667 -24.167 36 -22.5 58s11.834 42.333 30.501 61l167 166c32 32 59 51.667 81 59
c34.667 11.333 66.334 2.66602 95.001 -26.001l8 -8c27.333 -26 41.333 -50.667 42 -74c0 -29.333 -16.667 -60.666 -50 -93.999l-183 -183c-47.333 -47.333 -91 -71 -131 -71z" />
    <glyph glyph-name="equal" unicode="=" 
d="M315 -24v236h39v-236h-39zM236 -24v236h40v-236h-40zM158 -24v236h39v-236h-39zM453 291h19v-40h-39v-294c0 -16.667 -5.66699 -30.667 -17 -42s-25.333 -17 -42 -17h-236c-16.667 0 -30.667 5.66699 -42 17s-17 25.333 -17 42v294h-39v40h19v20
c0 5.33301 2 9.83301 6 13.5s8.66699 5.5 14 5.5h78v9c0 19.333 6.83301 36 20.5 50s30.167 21 49.5 21h58c19.333 0 35.833 -7 49.5 -21s20.5 -30.667 20.5 -50v-9h78c5.33301 0 10 -1.83301 14 -5.5s6 -8.16699 6 -13.5v-20zM198 339v-9h116v9
c0 8.66699 -2.66699 15.834 -8 21.501s-12 8.5 -20 8.5h-59c-8 0 -14.833 -2.83301 -20.5 -8.5s-8.5 -12.834 -8.5 -21.501zM394 -43v294h-101h-8h-58h-8h-101v-294c0 -5.33301 2 -10 6 -14s8.66699 -6 14 -6h236c5.33301 0 10 2 14 6s6 8.66699 6 14z" />
    <glyph glyph-name="greater" unicode="&#x3e;" 
d="M504 5c5.33301 -5.33301 8 -12 8 -20s-2.66699 -14.667 -8 -20l-60 -59c-5.33301 -5.33301 -11.833 -8 -19.5 -8s-14.167 2.66699 -19.5 8l-149 148l-149 -148c-5.33301 -5.33301 -11.833 -8 -19.5 -8s-14.167 2.66699 -19.5 8l-60 59c-5.33301 5.33301 -8 12 -8 20
s2.66699 14.667 8 20l149 149l-149 148c-5.33301 5.33301 -8 12 -8 20s2.66699 14.667 8 20l60 59c13.333 12.667 26.333 12.667 39 0l149 -148l149 148c12.667 12.667 25.667 12.667 39 0l60 -59c5.33301 -5.33301 8 -12 8 -20s-2.66699 -14.667 -8 -20l-149 -148z" />
    <glyph glyph-name="question" unicode="?" 
d="M385 324l90 -89l-284 -284c-2.66699 -4 -5.66699 -6.33301 -9 -7l-157 -46h-5c-6 0 -10.667 1.66699 -14 5c-5.33301 5.33301 -7 12 -5 20l46 156c0.666992 4 2.66699 7 6 9l284 284l26 -26l-280 -282l-27 -92l18 -19l89 26l6 7l-36 45l-32 7zM498 330
c9.33301 -9.33301 13.999 -20.333 13.999 -33s-4.66699 -23.667 -14 -33l-20 -20l-132 132l21 20c8.66699 9.33301 19.334 14 32.001 14s23.667 -4.66699 33 -14z" />
    <glyph glyph-name="at" unicode="@" 
d="M0 247l54 50l136 -136c30.667 -31.333 52.667 -47 66 -47s35.333 15.667 66 47l136 136l54 -50l-190 -190c-30.667 -31.333 -52.667 -47 -66 -47s-35.333 15.667 -66 47z" />
    <glyph glyph-name="A" unicode="A" 
d="M512 60l-54 -50l-136 136c-30.667 30.667 -52.667 46 -66 46s-35.333 -15.333 -66 -46l-136 -136l-54 50l190 191c30.667 31.333 52.667 47 66 47s35.333 -15.667 66 -47z" />
    <glyph glyph-name="B" unicode="B" 
d="M349 410l51 -55.001l-136 -136c-17.333 -17.333 -29.333 -30 -36 -38s-10 -17.167 -10 -27.5s3.33301 -19.5 10 -27.5s18.667 -20.667 36 -38l136 -136l-51 -54l-190 190c-31.333 30.667 -47 52.334 -47 65.001s15.667 34.667 47 66z" />
    <glyph glyph-name="C" unicode="C" 
d="M163 -102l-51 54l136 136c17.333 17.333 29.333 30 36 38s10 17.167 10 27.5s-3.33301 19.5 -10 27.5s-18.667 20.667 -36 38l-136 136l51 55l190 -191c31.333 -30.667 47 -52.5 47 -65.5s-15.667 -34.833 -47 -65.5z" />
    <glyph glyph-name="D" unicode="D" 
d="M436 410c26.667 0 46 -6.16699 58 -18.5s18 -31.833 18 -58.5v-359c0 -26.667 -6 -46 -18 -58s-31.333 -18 -58 -18h-360c-26.667 0 -46 6 -58 18s-18 31.333 -18 58v359c0 26.667 6 46.167 18 58.5s31.333 18.5 58 18.5h360zM473 -26v359
c0 15.333 -2.33301 25.333 -7 30s-14.667 7 -30 7h-360c-15.333 0 -25.333 -2.33301 -30 -7s-7 -14.667 -7 -30v-359c0 -15.333 2.33301 -25.333 7 -30s14.667 -7 30 -7h360c15.333 0 25.333 2.33301 30 7s7 14.667 7 30zM338 329
c23.333 1.33301 43.335 -6.33301 60.002 -23c15.333 -15.333 23 -34 23 -56c0 -24 -9 -45 -27 -63l-66 -66c-18 -18 -39 -27 -63 -27c-22 0 -40.667 7.66699 -56 23c-4 4 -6 9.16699 -6 15.5s2 11.5 6 15.5s9.16699 6 15.5 6s11.5 -2 15.5 -6
c7.33301 -7.33301 16.5 -10.833 27.5 -10.5s20.833 4.83301 29.5 13.5l67 67c9.33301 9.33301 14 20 14 32c0 10 -3.33301 18.333 -10 25s-16 10 -28 10c-10.667 0 -20.667 -4.66699 -30 -14l-38 -38c-4.66699 4.66699 -13.834 8 -27.501 10s-23.167 0.666992 -28.5 -4
l64 63c17.333 17.333 36.666 26.333 57.999 27zM228.002 82.001c4.66699 -4.66699 13.833 -7.83301 27.5 -9.5s23.167 -0.166992 28.5 4.5l-64 -64c-16 -16 -35.333 -24.667 -58 -26c-23.333 -1.33301 -43.333 6.33398 -60 23.001c-15.333 15.333 -23 34 -23 56
c0 23.333 9 44 27 62l66 67c17.333 17.333 38.333 26 63 26c22 0 40.667 -7.66699 56 -23c4 -4 6 -9 6 -15s-2 -11 -6 -15s-9.16699 -6 -15.5 -6s-11.5 2 -15.5 6c-7.33301 7.33301 -16.5 10.666 -27.5 9.99902s-20.833 -5.33398 -29.5 -14.001l-67 -67
c-9.33301 -9.33301 -14 -19.666 -14 -30.999c0 -10 3.66699 -18.667 11 -26c6.66699 -6.66699 15.667 -10 27 -10c12 1.33301 22 6 30 14z" />
    <glyph glyph-name="E" unicode="E" 
d="M399 327c14 -14 24.001 -24.333 30.001 -31s11.5 -14 16.5 -22s7.5 -15.333 7.5 -22v-295c0 -21.333 -4.5 -36.5 -13.5 -45.5s-24.167 -13.5 -45.5 -13.5h-276c-21.333 0 -36.5 4.5 -45.5 13.5s-13.5 24.167 -13.5 45.5v394c0 21.333 4.5 36.5 13.5 45.5
s24.167 13.5 45.5 13.5h177c6.66699 0 15.167 -3.5 25.5 -10.5s19.166 -14 26.499 -21l29.5 -29zM414.001 -43l0.000976562 274.999c0 6 -2.16699 10.667 -6.5 14s-8.83301 5.16602 -13.5 5.49902s-11.334 0.5 -20.001 0.5h-59c-5.33301 0 -10 2 -14 6s-6 8.66699 -6 14v60
c0 22.667 -4.66699 35.334 -14 38.001h-163c-12 0 -18.333 -1 -19 -3c-0.666992 -1.33301 -1 -6.66602 -1 -15.999v-394c0 -11.333 0.666992 -17.5 2 -18.5s7.33301 -1.5 18 -1.5h276c10.667 0 16.667 0.5 18 1.5s2 7.16699 2 18.5zM118.002 172.999v40h138v-40h-138z
M118.002 94.999v39h138v-39h-138zM118.002 15.999v39h276v-39h-276zM295.002 172.999v40h79v-40h-79zM276.002 74.999v39h118v-39h-118zM354.002 113.999v99h40v-99h-40zM276.002 113.999v99h39v-99h-39z" />
    <glyph glyph-name="F" unicode="F" 
d="M436 410c26.667 0 46 -6.16699 58 -18.5s18 -31.833 18 -58.5v-359c0 -26.667 -6 -46 -18 -58s-31.333 -18 -58 -18h-360c-26.667 0 -46 6 -58 18s-18 31.333 -18 58v359c0 26.667 6 46.167 18 58.5s31.333 18.5 58 18.5h360zM473 -26v359
c0 15.333 -2.33301 25.333 -7 30s-14.667 7 -30 7h-360c-15.333 0 -25.333 -2.33301 -30 -7s-7 -14.667 -7 -30v-359c0 -15.333 2.33301 -25.333 7 -30s14.667 -7 30 -7h360c15.333 0 25.333 2.33301 30 7s7 14.667 7 30zM400 261c6.66699 0 12.332 -2.33301 16.999 -7
s7 -10.334 7 -17.001v-191c0 -6.66699 -2.33301 -12.334 -7 -17.001s-10.334 -7 -17.001 -7h-288c-6.66699 0 -12.334 2.33301 -17.001 7s-7 10.334 -7 17.001v191c0 6.66699 2.33301 12.334 7 17.001s10.334 7 17.001 7h72c0 6.66699 2.33301 12.334 7 17.001
s10.334 7 17.001 7h96c6.66699 0 12.334 -2.33301 17.001 -7s7 -10.334 7 -17.001h72zM255.998 43c26.667 0 49.667 9.66699 69 29s29 42.666 29 69.999c0 26.667 -9.66699 49.667 -29 69s-42.333 29 -69 29s-49.667 -9.66699 -69 -29s-29 -42.333 -29 -69
c0 -27.333 9.66699 -50.666 29 -69.999s42.333 -29 69 -29zM255.998 210c19.333 0 35.6699 -6.66699 49.0029 -20s20 -29.333 20 -48s-6.83301 -34.834 -20.5 -48.501s-29.834 -20.5 -48.501 -20.5s-34.834 6.83301 -48.501 20.5s-20.5 29.834 -20.5 48.501
s6.66699 34.667 20 48s29.666 20 48.999 20zM256.002 97c12.667 0 23.334 4.33301 32.001 13s13 19.334 13 32.001s-4.33301 23.167 -13 31.5s-19.334 12.5 -32.001 12.5s-23.334 -4.16699 -32.001 -12.5s-13 -18.833 -13 -31.5s4.33301 -23.334 13 -32.001
s19.334 -13 32.001 -13z" />
    <glyph glyph-name="G" unicode="G" 
d="M436 410c26.667 0 46 -6.16699 58 -18.5s18 -31.833 18 -58.5v-359c0 -26.667 -6 -46 -18 -58s-31.333 -18 -58 -18h-360c-26.667 0 -46 6 -58 18s-18 31.333 -18 58v359c0 26.667 6 46.167 18 58.5s31.333 18.5 58 18.5h360zM473 -26v359
c0 15.333 -2.33301 25.333 -7 30s-14.667 7 -30 7h-360c-15.333 0 -25.333 -2.33301 -30 -7s-7 -14.667 -7 -30v-359c0 -15.333 2.33301 -25.333 7 -30s14.667 -7 30 -7h360c15.333 0 25.333 2.33301 30 7s7 14.667 7 30zM354 304
c8.66699 2.66699 15.834 1.83691 21.501 -2.49609s8.5 -10.833 8.5 -19.5v-198c0 -13.333 -5.83301 -25.5 -17.5 -36.5s-25.834 -17.5 -42.501 -19.5s-31 0.833008 -43 8.5s-18 18.167 -18 31.5s6 25.5 18 36.5s26.333 17.5 43 19.5c8 0.666992 14.5 0.666992 19.5 0
s8.83301 -1.33398 11.5 -2.00098l4 -2v92c0 4 -1.16699 6.66699 -3.5 8s-4.5 1.66602 -6.5 0.999023l-3 -1l-125 -39c-9.33301 -3.33301 -14 -9 -14 -17v-105c0 -13.333 -5.5 -25.333 -16.5 -36s-24.833 -17.334 -41.5 -20.001s-31 -0.333984 -43 6.99902
s-18 17.666 -18 30.999s6 25.666 18 36.999s26.333 18.333 43 21c7.33301 0.666992 13.5 0.666992 18.5 0s8.5 -1.66699 10.5 -3l4 -1v2v124c0 8.66699 3 16.834 9 24.501s13.333 12.834 22 15.501z" />
    <glyph glyph-name="H" unicode="H" 
d="M0 -14v335c0 16.667 5.66699 30.667 17 42s25.333 17 42 17h99c16.667 0 30.667 -5.66699 42 -17s17 -25.333 17 -42h236c16.667 0 30.667 -5.66699 42 -17s17 -25.333 17 -42v-276c0 -16.667 -5.66699 -30.667 -17 -42s-25.333 -17 -42 -17h-394
c-16.667 0 -30.667 5.66699 -42 17s-17 25.333 -17 42zM473 -14v276c0 5.33301 -2 10 -6 14s-8.66699 6 -14 6h-177v-40h39v-39h-39v-40h39v-39h-39v-39h39v-40h-39v-39h-40v39h-39v40h39v39h-39v39h39v40h-39v39h39v40h-177c-5.33301 0 -10 -2 -14 -6s-6 -8.66699 -6 -14
v-276c0 -5.33301 2 -9.83301 6 -13.5s8.66699 -5.5 14 -5.5h394c5.33301 0 10 1.83301 14 5.5s6 8.16699 6 13.5z" />
    <glyph glyph-name="I" unicode="I" 
d="M412 327c14 -14 23.999 -24.332 29.999 -30.999s11.5 -14 16.5 -22s7.5 -15.333 7.5 -22v-295c0 -21.333 -4.5 -36.5 -13.5 -45.5s-24.167 -13.5 -45.5 -13.5h-276c-21.333 0 -36.5 4.5 -45.5 13.5s-13.5 24.167 -13.5 45.5v394c0 21.333 4.5 36.5 13.5 45.5
s24.167 13.5 45.5 13.5h177c5.33301 0 11.5 -1.83301 18.5 -5.5s14.833 -9.33398 23.5 -17.001l21.5 -19.5c5.66699 -5.33301 13.334 -13 23.001 -23zM406.999 -62.999c10.667 0 16.499 0.499023 17.499 1.49902s1.5 7.16699 1.5 18.5v275c0 6 -2.16699 10.667 -6.5 14
s-8.66602 5.16602 -12.999 5.49902s-10.833 0.5 -19.5 0.5h-59c-5.33301 0 -10 2 -14 6s-6 8.66699 -6 14v60c0 22.667 -4.66699 35.334 -14 38.001h-163c-12 0 -18.333 -1 -19 -3c-0.666992 -1.33301 -1 -6.66602 -1 -15.999v-394c0 -11.333 0.5 -17.5 1.5 -18.5
s7.16699 -1.5 18.5 -1.5h276zM150.998 173v40h226v-40h-226zM150.998 95v39h226v-39h-226zM150.998 16v39h226v-39h-226z" />
    <glyph glyph-name="J" unicode="J" 
d="M399 327c14 -14 24.001 -24.333 30.001 -31s11.5 -14 16.5 -22s7.5 -15.333 7.5 -22v-295c0 -21.333 -4.5 -36.5 -13.5 -45.5s-24.167 -13.5 -45.5 -13.5h-276c-21.333 0 -36.5 4.5 -45.5 13.5s-13.5 24.167 -13.5 45.5v394c0 21.333 4.5 36.5 13.5 45.5
s24.167 13.5 45.5 13.5h177c6.66699 0 15.167 -3.5 25.5 -10.5s19.166 -14 26.499 -21l29.5 -29zM414.001 -43l0.000976562 274.999c0 6 -2.16699 10.667 -6.5 14s-8.83301 5.16602 -13.5 5.49902s-11.334 0.5 -20.001 0.5h-59c-5.33301 0 -10 2 -14 6s-6 8.66699 -6 14v60
c0 22.667 -4.66699 35.334 -14 38.001h-163c-12 0 -18.333 -1 -19 -3c-0.666992 -1.33301 -1 -6.66602 -1 -15.999v-394c0 -11.333 0.666992 -17.5 2 -18.5s7.33301 -1.5 18 -1.5h276c10.667 0 16.667 0.5 18 1.5s2 7.16699 2 18.5z" />
    <glyph glyph-name="K" unicode="K" 
d="M453 370c16.667 0 30.667 -5.66699 42 -17s17 -25.333 17 -42v-256c0 -16.667 -5.66699 -30.667 -17 -42s-25.333 -17 -42 -17h-177v-7l107 -54c12 -6 15 -15 9 -27c-2.66699 -6.66699 -8.66699 -10 -18 -10c-2 0 -5 0.666992 -9 2l-89 44v-7c0 -5.33301 -2 -10 -6 -14
s-8.66699 -6 -14 -6s-10 2 -14 6s-6 8.66699 -6 14v7l-89 -44c-4 -1.33301 -7 -2 -9 -2c-9.33301 0 -15.333 3.33301 -18 10c-6 12 -3 21 9 27l107 54v7h-177c-16.667 0 -30.667 5.66699 -42 17s-17 25.333 -17 42v256c0 16.667 5.66699 30.667 17 42s25.333 17 42 17h177
v20c0 5.33301 2 10 6 14s8.66699 6 14 6s10 -2 14 -6s6 -8.66699 6 -14v-20h177zM473 55v256h-434v-256h434zM112 140c-9.33301 -9.33301 -18.333 -9.33398 -27 -0.000976562c-9.33301 9.33301 -9.33301 18.666 0 27.999l59 59c4.66699 4.66699 10.667 6.33398 18 5.00098
s12 -5.33301 14 -12l24 -61l59 103c3.33301 6 8 9.33301 14 10c6 1.33301 11.667 -0.666992 17 -6l45 -45l65 65c9.33301 9.33301 18.333 9.33301 27 0c9.33301 -9.33301 9.33301 -18.666 0 -27.999l-78 -79c-9.33301 -9.33301 -18.666 -9.33301 -27.999 0l-41 41l-66 -116
c-4 -6 -9.66699 -9 -17 -9h-1c-8.66699 1.33301 -14.334 5.33301 -17.001 12l-29 71z" />
    <glyph glyph-name="L" unicode="L" 
d="M436 410c26.667 0 46 -6.16699 58 -18.5s18 -31.833 18 -58.5v-359c0 -26.667 -6 -46 -18 -58s-31.333 -18 -58 -18h-360c-26.667 0 -46 6 -58 18s-18 31.333 -18 58v359c0 26.667 6 46.167 18 58.5s31.333 18.5 58 18.5h360zM473 -26v359
c0 15.333 -2.33301 25.333 -7 30s-14.667 7 -30 7h-360c-15.333 0 -25.333 -2.33301 -30 -7s-7 -14.667 -7 -30v-359c0 -15.333 2.33301 -25.333 7 -30s14.667 -7 30 -7h360c15.333 0 25.333 2.33301 30 7s7 14.667 7 30zM381 227l29.002 0.000976562v-147h-29
c-4.66699 0 -12 4.83301 -22 14.5s-17.333 14.5 -22 14.5h-15v-34c0 -7.33301 -2.33301 -12.833 -7 -16.5s-9.33398 -5.83398 -14.001 -6.50098s-12.334 -1 -23.001 -1h-176v206h176c10 0 17.667 -0.333008 23 -1s10.166 -3 14.499 -7s6.5 -9.66699 6.5 -17v-34h15
c5.33301 0 12.833 4.83301 22.5 14.5s16.834 14.5 21.501 14.5z" />
    <glyph glyph-name="M" unicode="M" 
d="M408 304c14.667 0 27.167 -5.16699 37.5 -15.5s15.5 -22.833 15.5 -37.5v-248c0 -14.667 -5.16699 -27.167 -15.5 -37.5s-22.833 -15.5 -37.5 -15.5h-355c-14.667 0 -27.167 5.16699 -37.5 15.5s-15.5 22.833 -15.5 37.5v230v18v53c0 36 11.667 54 35 54h124
c24 0 36 -18 36 -54h213z" />
    <glyph glyph-name="N" unicode="N" 
d="M31 -5c-4 -8.66699 -3.33496 -16.167 1.99805 -22.5s13 -9.5 23 -9.5h336c10.667 0 21.334 3.66699 32.001 11s18.334 16 23.001 26l62 166c4.66699 10 4.66699 18.5 0 25.5s-12.667 10.5 -24 10.5h-319c-25.333 0 -41.333 -7.66699 -48 -23zM101.998 203
c-5.33301 -6.66699 -9.33301 -13 -12 -19l-81 -171c-6 8 -9 18 -9 30v248c0 35.333 12 53 36 53h124c23.333 0 35 -17.667 35 -53h142c14.667 0 27.167 -5.16699 37.5 -15.5s15.5 -22.833 15.5 -37.5l-14 -9h-218c-10 0 -21 -3 -33 -9c-9.33301 -3.33301 -17 -9 -23 -17z
" />
    <glyph glyph-name="O" unicode="O" 
d="M187 -93c-54.667 15.333 -99.502 45.666 -134.502 90.999s-52.5 97.333 -52.5 156c0 70.667 25 131 75 181s110.333 75 181 75s131 -25 181 -75s75 -110.333 75 -181c0 -61.333 -19 -115.333 -57 -162c-16.667 8.66699 -36.667 13 -60 13
c-6 0 -16.167 -0.666992 -30.5 -2s-24.5 -1.66602 -30.5 -0.999023c-33.333 2.66699 -56 13.667 -68 33c-11.333 18.667 -16 39 -14 61l1 11l23 -1c1.33301 0 10 1.66699 26 5c2 0.666992 6.16699 0.166992 12.5 -1.5s10.166 -2.5 11.499 -2.5c1.33301 0.666992 5 6 11 16
s9 15.667 9 17c0 4 -9.66699 11 -29 21c-1.33301 0.666992 -4.66602 2.83398 -9.99902 6.50098s-11 7.33398 -17 11.001s-11.667 6.16699 -17 7.5l-38 10c4.66699 5.33301 9.33398 11.333 14.001 18c3.33301 4.66699 8 13 14 25c12.667 -4 25.667 -3.66699 39 1
c4 1.33301 8 3.5 12 6.5l10 7.5l3 4l-19 16c-4.66699 -6 -9.66699 -10.333 -15 -13l-24 -3c1.33301 10.667 2 21 2 31c0 7.33301 -1.66699 14.666 -5 21.999s-6.66602 13 -9.99902 17l-5 5l-25 -23c11.333 -12.667 17.333 -24 18 -34c0.666992 -13.333 -2.33301 -27 -9 -41
c-2.66699 -5.33301 -6.16699 -11.166 -10.5 -17.499s-7.83301 -11.166 -10.5 -14.499l-4 -5c-10.667 -0.666992 -23.667 2 -39 8c-6.66699 2.66699 -13 5.66699 -19 9s-10.333 6.33301 -13 9l-4 3c10 0 19.333 1.66699 28 5c6 2.66699 11.333 6.16699 16 10.5
s7.66699 8.16602 9 11.499l2 4l-23 14c-3.33301 -8.66699 -8.66602 -15.334 -15.999 -20.001c-3.33301 -2.66699 -7.16602 -4.5 -11.499 -5.5s-7.83301 -1.5 -10.5 -1.5h-4c-6.66699 14 -8.66699 26.5 -6 37.5s7 20.167 13 27.5l10 11l-29 26
c-1.33301 -1.33301 -3 -3.5 -5 -6.5s-5.33301 -9 -10 -18s-8 -18 -10 -27s-2.16699 -19.833 -0.5 -32.5s6.16699 -24.667 13.5 -36c18 -28 49.333 -45 94 -51c-10 -12.667 -19.333 -37.334 -28 -74.001c-9.33301 -37.333 -7.33301 -85.333 6 -144
c1.33301 -6 3.66602 -15 6.99902 -27s5.66602 -20 6.99902 -24zM421.998 -22c4 -1.33301 8.66602 -3.33203 13.999 -5.99902c-49.333 -49.333 -109.333 -74 -180 -74c-16 0 -28 0.666992 -36 2c-2.66699 9.33301 -4.66699 16.666 -6 21.999
c-19.333 62.667 -28.666 104 -27.999 124c1.33301 38 5 65 11 81c2.66699 8 6 15.833 10 23.5l9 17.5l4 5c12.667 -0.666992 26.334 -2.66699 41.001 -6c11.333 -2.66699 26.666 -10 45.999 -22l7 -3.5c3.33301 -1.66699 5.5 -3 6.5 -4s1.16699 -2.16699 0.5 -3.5
c-2 -6 -5.33301 -9 -10 -9c-0.666992 0 -1.16699 0.166992 -1.5 0.5s-1.33301 0.833008 -3 1.5s-3.5 1 -5.5 1c-2.66699 0 -6.5 -0.166992 -11.5 -0.5s-8.16699 -0.5 -9.5 -0.5h-27l-15 8c-0.666992 -3.33301 -1.66699 -7.5 -3 -12.5s-3 -14.833 -5 -29.5s-2 -26.667 0 -36
c2 -17.333 10.667 -35 26 -53s38 -28 68 -30c16.667 -0.666992 36 1.33301 58 6c14 2.66699 27.333 2 40 -2z" />
    <glyph glyph-name="P" unicode="P" 
d="M399 25l39 34v-102c0 -16.667 -5.66699 -30.667 -17 -42s-25.333 -17 -42 -17h-276c-16.667 0 -30.667 5.66699 -42 17s-17 25.333 -17 42v394c0 16.667 5.66699 30.667 17 42s25.333 17 42 17h276c16.667 0 30.667 -5.66699 42 -17s17 -25.333 17 -42v-103l-39 35v68
c0 5.33301 -2 9.83301 -6 13.5s-8.66699 5.5 -14 5.5h-276c-12.667 0 -19 -6.33301 -19 -19v-394c0 -5.33301 1.83301 -10 5.5 -14s8.16699 -6 13.5 -6h276c5.33301 0 10 2 14 6s6 8.66699 6 14v68zM320 26c-13.333 -4 -19.999 2.33301 -19.999 19v50h-118
c-5.33301 0 -10 1.83301 -14 5.5s-6 8.16699 -6 13.5v79c0 5.33301 2 10 6 14s8.66699 6 14 6h118v50c0 8 1.66699 13.5 5 16.5s6.66602 4.16699 9.99902 3.5l5 -1l148 -128z" />
    <glyph glyph-name="Q" unicode="Q" 
d="M355 156c19.333 -7.33301 34.998 -15.9951 46.998 -25.9951s20.5 -21 25.5 -33s8.16699 -23.167 9.5 -33.5s2.33301 -22.5 3 -36.5v-9c-22 -24 -48.667 -38.333 -80 -43s-59 -2.33398 -83 6.99902s-41.333 21.666 -52 36.999c-27.333 -10 -58.333 -10 -93 0
s-54 21 -58 33c0 0.666992 -0.333008 3.66699 -1 9s-1 10 -1 14s0.166992 9.5 0.5 16.5s1 13.333 2 19s3 12 6 19s6.5 13.333 10.5 19s9.5 11.167 16.5 16.5s14.833 10 23.5 14c-21.333 9.33301 -34.333 28.333 -39 57s-0.333984 50.667 12.999 66
c10.667 13.333 21.5 22.166 32.5 26.499s25.5 6.16602 43.5 5.49902c14 -0.666992 27.167 -6.66699 39.5 -18s16.833 -26.666 13.5 -45.999c1.33301 6.66699 -0.666992 13.334 -6 20.001c-4.66699 8 -13.5 12.833 -26.5 14.5s-23.5 0.166992 -31.5 -4.5
c-12.667 -8 -21 -14.333 -25 -19s-11.333 -10 -22 -16c-19.333 -12 -23.166 -29.333 -11.499 -52s28.5 -36 50.5 -40c-20.667 4 -35.667 20.667 -45 50c-4.66699 13.333 -2.66699 23.333 6 30c4.66699 3.33301 8 3.33301 10 0c8.66699 13.333 26.667 22.666 54 27.999
c6.66699 1.33301 15.5 0.833008 26.5 -1.5s17.5 -6.5 19.5 -12.5v1c0 -2 0.166992 -5.33301 0.5 -10s0.5 -8.33398 0.5 -11.001c0 -12.667 -1.66699 -24 -5 -34c-0.666992 -16.667 1.66602 -26.667 6.99902 -30h1c-8 -2.66699 -14.333 -3.33398 -19 -2.00098
c-1.33301 0 -2.66602 0.666992 -3.99902 2c22 -10.667 37.667 -24.667 47 -42l15 9c-18.667 12 -29 33 -31 63c-0.666992 21.333 0.333008 37 3 47c-1.33301 1.33301 -2 4.33301 -2 9c2 24 17 38 45 42c49.333 8 80.333 -5.66699 93 -41
c6.66699 -13.333 7.33398 -31 2.00098 -53s-15.666 -36 -30.999 -42v-19zM223.998 200.005l-1 -2l-1 -2c4 -8.66699 7.33301 -13 10 -13c-4 0 -6.66699 5.66699 -8 17zM144.998 192.005c11.333 -14.667 24.666 -21.666 39.999 -20.999c6.66699 0 13.667 3 21 9l-1 1l-20 -5
c-15.333 -0.666992 -28.666 4.66602 -39.999 15.999zM135.998 147.006c4 -12.667 12.668 -20.8301 26.001 -24.4971s25.833 -2 37.5 5s16.834 17.5 15.501 31.5c-0.666992 7.33301 -3.33398 13.666 -8.00098 18.999v-18c-0.666992 -6.66699 -6.5 -11.334 -17.5 -14.001
s-20.167 -2.66699 -27.5 0c-14 4.66699 -21 11.667 -21 21v8c-0.666992 0 -1.66699 0.333008 -3 1c-4.66699 -8.66699 -5.33398 -18.334 -2.00098 -29.001zM254.999 257.01c4 0 10.8311 0.331055 20.498 0.998047s16.834 0.666992 21.501 0
c15.333 -1.33301 26.333 -4.66602 33 -9.99902c2.66699 -2.66699 5 -5.66699 7 -9s3.33301 -6.33301 4 -9s1.33398 -6.66699 2.00098 -12s1.33398 -8.66602 2.00098 -9.99902v1c4.66699 6.66699 5.66699 16.667 3 30c-2.66699 12.667 -8.66699 21 -18 25
c-10 4 -26.667 7 -50 9c-2.66699 0 -7.33398 1.5 -14.001 4.5s-10.334 6.5 -11.001 10.5c-4 -4 -6.66699 -9.66699 -8 -17s1.33398 -12 8.00098 -14zM360.997 128.008c2 12 -0.00195312 21 -6.00195 27v-5v-5.5v-5.5c0 -0.666992 -0.166992 -2 -0.5 -4
s-0.833008 -3.33301 -1.5 -4l-3 -3c-1.33301 -1.33301 -3 -2.66602 -5 -3.99902c-8 -5.33301 -18 -7.83301 -30 -7.5s-21 4.16602 -27 11.499c-2 2.66699 -3 7.66699 -3 15c2 -2 4.5 -3.66699 7.5 -5s5.5 -2 7.5 -2h3c18 0 34.333 12 49 36v1
c-14.667 -22 -31.667 -33 -51 -33c-5.33301 0.666992 -11.666 3 -18.999 7c-1.33301 -4 -2 -7 -2 -9c-0.666992 -14 4.83301 -24.833 16.5 -32.5s24.334 -9.5 38.001 -5.5s22.5 13.333 26.5 28zM255.995 -101.992c-70.667 0 -131 25 -181 75s-75 110.333 -75 181
s25 131 75 181s110.333 75 181 75s131 -25 181 -75s75 -110.333 75 -181s-25 -131 -75 -181s-110.333 -75 -181 -75zM255.995 382.008c-62.667 0 -116.334 -22.333 -161.001 -67s-67 -98.334 -67 -161.001c0 -63.333 22.333 -117.333 67 -162s98.334 -67 161.001 -67
s116.334 22.333 161.001 67s67 98.667 67 162c0 62.667 -22.333 116.334 -67 161.001s-98.334 67 -161.001 67z" />
    <glyph glyph-name="R" unicode="R" 
d="M98 -43v118h316v-118h-316zM217 16v-20c26 16 52 16 78 0v20c0 12.667 -6.33301 19 -19 19h-40c-12.667 0 -19 -6.33301 -19 -19zM98 95v118h316v-118h-316zM217 154v-20c26 16 52 16 78 0v20c0 12.667 -6.33301 19 -19 19h-40c-12.667 0 -19 -6.33301 -19 -19zM414 410
c16.667 0 30.667 -5.66699 42 -17s17 -25.333 17 -42v-394c0 -16.667 -5.66699 -30.667 -17 -42s-25.333 -17 -42 -17h-316c-16.667 0 -30.667 5.66699 -42 17s-17 25.333 -17 42v394c0 16.667 5.66699 30.667 17 42s25.333 17 42 17h316zM433 -43v394
c0 12.667 -6.33301 19 -19 19h-316c-12.667 0 -19 -6.33301 -19 -19v-394c0 -5.33301 1.83301 -10 5.5 -14s8.16699 -6 13.5 -6h316c5.33301 0 9.83301 2 13.5 6s5.5 8.66699 5.5 14zM98 232v119h316v-119h-316zM217 291v-19c26 16 52 16 78 0v19
c0 5.33301 -1.83301 10 -5.5 14s-8.16699 6 -13.5 6h-40c-5.33301 0 -9.83301 -2 -13.5 -6s-5.5 -8.66699 -5.5 -14z" />
    <glyph glyph-name="S" unicode="S" 
d="M197 -23l75 151h-95v45h157v-30l-68 -166h-69zM138 311c-5.33301 0 -10 2 -14 6s-6 8.66699 -6 14v59c0 5.33301 2 10 6 14s8.66699 6 14 6s10 -2 14 -6s6 -8.66699 6 -14v-59c0 -5.33301 -2 -10 -6 -14s-8.66699 -6 -14 -6zM453 370
c16.667 0 30.665 -5.66699 41.998 -17s17 -25.333 17 -42v-354c0 -16.667 -5.66699 -30.667 -17 -42s-25.333 -17 -42 -17h-394c-16.667 0 -30.667 5.66699 -42 17s-17 25.333 -17 42v354c0 16.667 5.66699 30.667 17 42s25.333 17 42 17h39v-39
c0 -11.333 4 -20.833 12 -28.5s17.333 -11.5 28 -11.5s19.834 3.83301 27.501 11.5s11.5 17.167 11.5 28.5v39h158v-39c0 -11.333 3.83301 -20.833 11.5 -28.5s16.834 -11.5 27.501 -11.5s20 3.83301 28 11.5s12 17.167 12 28.5v39h39zM472.998 -43v275h-434v-275
c0 -5.33301 2 -10 6 -14s8.66699 -6 14 -6h394c5.33301 0 10 2 14 6s6 8.66699 6 14zM373.998 311c-5.33301 0 -10 2 -14 6s-6 8.66699 -6 14v59c0 5.33301 2 10 6 14s8.66699 6 14 6s10 -2 14 -6s6 -8.66699 6 -14v-59c0 -5.33301 -2 -10 -6 -14s-8.66699 -6 -14 -6z" />
    <glyph glyph-name="T" unicode="T" 
d="M298 91c61.333 -20.667 92.001 -47.6699 92.001 -81.0029c0 -27.333 -34.333 -42.333 -103 -45c-71.333 -3.33301 -121 2.33398 -149 17.001c-12.667 6.66699 -19.5 15.334 -20.5 26.001s1.66699 20.667 8 30s14.5 17.333 24.5 24c12 8 23.667 14.667 35 20
c0.666992 0.666992 4.5 2.16699 11.5 4.5s11.833 4.83301 14.5 7.5c4.66699 5.33301 7 10.833 7 16.5s-0.666992 10.167 -2 13.5s-4.33301 8.5 -9 15.5l-9 13.5c-12.667 18.667 -18.5 41.834 -17.5 69.501s11.167 48.167 30.5 61.5c16 11.333 34.333 15.333 55 12
s36.667 -12.666 48 -27.999c14 -22.667 18.167 -46.834 12.5 -72.501s-17.5 -48.167 -35.5 -67.5c-2.66699 -8 -3.33398 -14.833 -2.00098 -20.5s2.83301 -9.66699 4.5 -12s3.16699 -3.83301 4.5 -4.5zM425.001 158.997c58 -19.333 86.998 -44.667 86.998 -76
c0 -25.333 -31.667 -39.333 -95 -42c-11.333 29.333 -43.666 54 -96.999 74c23.333 28.667 36.333 60.5 39 95.5s-9.66602 65.833 -36.999 92.5c8.66699 21.333 25 34.5 49 39.5s44 -0.833008 60 -17.5c16.667 -20 23.167 -43.667 19.5 -71s-14.167 -50.333 -31.5 -69
c-4 -13.333 -2 -22 6 -26zM153.999 217.996c0 -37.333 12.999 -71.6709 38.999 -103.004c-52.667 -20 -84.667 -44.667 -96 -74c-7.33301 0.666992 -13.833 1.33398 -19.5 2.00098s-13.5 1.83398 -23.5 3.50098s-17.833 3.83398 -23.5 6.50098s-12 6.33398 -19 11.001
s-10.5 10.167 -10.5 16.5s1 13.833 3 22.5c7.33301 18 27.666 33.667 60.999 47c2.66699 1.33301 6 2.66602 10 3.99902s7 2.5 9 3.5s4.16699 2.33301 6.5 4s3.83301 3.33398 4.5 5.00098s1 4.16699 1 7.5s-0.666992 7 -2 11h1c-17.333 18.667 -28 41.667 -32 69
s2.33301 51 19 71c16.667 16.667 36.834 22.5 60.501 17.5s39.834 -18.167 48.501 -39.5c-24.667 -20 -37 -48.333 -37 -85z" />
    <glyph glyph-name="U" unicode="U" 
d="M410 410c28 0 52 -10 72 -30s30 -44 30 -72v-308c0 -28 -10 -52 -30 -72s-44 -30 -72 -30h-308c-28 0 -52 10 -72 30s-30 44 -30 72v308c0 28 10 52 30 72s44 30 72 30h308zM61 320v-333c0 -8 2.66699 -14.667 8 -20s12 -8 20 -8h334c8 0 14.667 2.66699 20 8s8 12 8 20
v333c0 8 -2.66699 14.833 -8 20.5s-12 8.5 -20 8.5h-334c-8 0 -14.667 -2.83301 -20 -8.5s-8 -12.5 -8 -20.5zM124 204l-15 -12.001l-27 34l71 55h16c13.333 0 20 -3.33301 20 -10v-239h-47v153c0 3.33301 0.166992 9 0.5 17s0.5 13.667 0.5 17
c-2 -2 -5.16699 -4.66699 -9.5 -8s-7.5 -5.66602 -9.5 -6.99902zM334 28.999c-26.667 0 -47.167 11.167 -61.5 33.5s-21.5 53.833 -21.5 94.5c0 85.333 27.667 128 83 128c26.667 0 47.167 -11.167 61.5 -33.5s21.5 -53.833 21.5 -94.5c0 -85.333 -27.667 -128 -83 -128z
M334 240.999c-14.667 0 -24.667 -9.33301 -30 -28c-3.33301 -12 -5 -30.667 -5 -56c0 -26 1.66699 -45 5 -57c5.33301 -18.667 15.333 -28 30 -28c23.333 0 35 28.333 35 85c0 56 -11.667 84 -35 84z" />
    <glyph glyph-name="V" unicode="V" 
d="M453 331c16.667 0 30.667 -5.66699 42 -17s17 -25.333 17 -42v-237c0 -16.667 -5.66699 -30.667 -17 -42s-25.333 -17 -42 -17h-394c-16.667 0 -30.667 5.66699 -42 17s-17 25.333 -17 42v237c0 16.667 5.66699 30.667 17 42s25.333 17 42 17h394zM344 156l162 106
l-19 27l-231 -149l-230 148l-17 -24l159 -108l-148 -140l23 -25l153 146l60 -33l58 35l154 -147l24 24z" />
    <glyph glyph-name="W" unicode="W" 
d="M360 112l61.999 -61.999c20.667 32.667 31 67.334 31 104.001c0 52.667 -18.667 97.667 -56 135s-82.333 56 -135 56v52c66.667 0 123.834 -23.833 171.501 -71.5s71.5 -104.834 71.5 -171.501c0 -48.667 -13.333 -97.334 -40 -146.001l47 -48l-190 -38zM70.999 154.001
c0 -52.667 18.668 -97.668 56.001 -135.001s82.333 -56 135 -56v-52c-66.667 0 -123.834 23.833 -171.501 71.5s-71.5 104.834 -71.5 171.501c0 41.333 10 80.333 30 117l-49 50l190 38l-38 -190l-64 63c-11.333 -24.667 -17 -50.667 -17 -78z" />
    <glyph glyph-name="X" unicode="X" 
d="M256 410c70.667 0 131 -25 181 -75s75 -110.333 75 -181s-25 -131 -75 -181s-110.333 -75 -181 -75s-131 25 -181 75s-75 110.333 -75 181s25 131 75 181s110.333 75 181 75zM399 45c7.33301 7.33301 7.33496 15 0.00195312 23l-86 86l86 85
c7.33301 7.33301 7.33301 15 0 23l-34 34c-3.33301 2.66699 -7.33301 4 -12 4s-8.33398 -1.33301 -11.001 -4l-86 -85l-86 85c-2.66699 2.66699 -6.33398 4 -11.001 4s-8.66699 -1.33301 -12 -4l-34 -34c-7.33301 -8 -7.33301 -15.667 0 -23l86 -85l-86 -86
c-7.33301 -8 -7.33301 -15.667 0 -23l34 -34c7.33301 -7.33301 15 -7.33301 23 0l86 85l86 -85c8 -7.33301 15.667 -7.33301 23 0z" />
    <glyph glyph-name="Y" unicode="Y" 
d="M384 -43v215.999l39 41v-257c0 -21.333 -4.5 -36.5 -13.5 -45.5s-24.167 -13.5 -45.5 -13.5h-275c-21.333 0 -36.5 4.5 -45.5 13.5s-13.5 24.167 -13.5 45.5v394c0 21.333 4.5 36.5 13.5 45.5s24.167 13.5 45.5 13.5h177l49 -49l-31 -23l-32 32h-163
c-12 0 -18.333 -1 -19 -3c-0.666992 -1.33301 -1 -6.66602 -1 -15.999v-394c0 -11.333 0.5 -17.5 1.5 -18.5s7.16699 -1.5 18.5 -1.5h275c10.667 0 16.667 0.5 18 1.5s2 7.16699 2 18.5zM438 314.999l2.00098 0.999023l19 -18l-182 -182
c-1.33301 -1.33301 -3.33301 -2.66602 -6 -3.99902l-100 -30h-4c-3.33301 0 -6 1 -8 3c-4 4 -5.33301 8.33301 -4 13l30 100c1.33301 2.66699 2.66602 4.66699 3.99902 6l182 182l16 -17l-179 -181l-17 -59l11 -11l57 16l4 4l-23 29l-20 5l181 183zM474.001 358.998
c6 -6 9 -13 9 -21s-3 -15 -9 -21l-13 -14l-85 85l13 13c6 6 13 9 21 9s15 -3 21 -9z" />
    <glyph glyph-name="Z" unicode="Z" 
d="M138 311c-5.33301 0 -10 2 -14 6s-6 8.66699 -6 14v59c0 5.33301 2 10 6 14s8.66699 6 14 6s10 -2 14 -6s6 -8.66699 6 -14v-59c0 -5.33301 -2 -10 -6 -14s-8.66699 -6 -14 -6zM453 370c16.667 0 30.665 -5.66699 41.998 -17s17 -25.333 17 -42v-354
c0 -16.667 -5.66699 -30.667 -17 -42s-25.333 -17 -42 -17h-394c-16.667 0 -30.667 5.66699 -42 17s-17 25.333 -17 42v354c0 16.667 5.66699 30.667 17 42s25.333 17 42 17h39v-39c0 -11.333 4 -20.833 12 -28.5s17.333 -11.5 28 -11.5s19.834 3.83301 27.501 11.5
s11.5 17.167 11.5 28.5v39h158v-39c0 -11.333 3.83301 -20.833 11.5 -28.5s16.834 -11.5 27.501 -11.5s20 3.83301 28 11.5s12 17.167 12 28.5v39h39zM472.998 -43v275h-434v-275c0 -5.33301 2 -10 6 -14s8.66699 -6 14 -6h394c5.33301 0 10 2 14 6s6 8.66699 6 14z
M373.998 311c-5.33301 0 -10 2 -14 6s-6 8.66699 -6 14v59c0 5.33301 2 10 6 14s8.66699 6 14 6s10 -2 14 -6s6 -8.66699 6 -14v-59c0 -5.33301 -2 -10 -6 -14s-8.66699 -6 -14 -6zM165.998 -24h-71.999c0.666992 26 3.33398 48.667 8.00098 68s11.667 35.333 21 48
s18.833 23.167 28.5 31.5s22.834 14.833 39.501 19.5s31.667 8.16699 45 10.5s30.666 4.5 51.999 6.5v44l126 -79l-126 -79v41c-6.66699 -1.33301 -15.834 -2.5 -27.501 -3.5s-20.167 -1.83301 -25.5 -2.5s-12 -2.16699 -20 -4.5s-14.167 -5.83301 -18.5 -10.5
s-8.83301 -10.667 -13.5 -18s-8.33398 -17 -11.001 -29s-4.66699 -26.333 -6 -43z" />
    <glyph glyph-name="bracketleft" unicode="[" 
d="M335 362l-31 -24l-32 33h-164c-10.667 0 -16.667 -0.5 -18 -1.5s-2 -7.16699 -2 -18.5v-395c0 -10.667 0.666992 -16.667 2 -18s7.33301 -2 18 -2h277c10.667 0 16.5 0.5 17.5 1.5s1.5 7.16699 1.5 18.5v217l40 41v-258c0 -22 -4.33301 -37.333 -13 -46s-24 -13 -46 -13
h-277c-22 0 -37.333 4.33301 -46 13s-13 24 -13 46v395c0 22 4.33301 37.333 13 46s24 13 46 13h178zM455 366c10.667 -7.33301 12.334 -16.334 5.00098 -27.001l-188 -278c-6 -8 -13.833 -12.167 -23.5 -12.5s-17.834 3.16699 -24.501 10.5l-110 110
c-9.33301 8.66699 -9.33301 17.667 0 27l27 28c8.66699 8 17.667 8 27 0l72 -72l156 230c7.33301 10.667 16.333 12.334 27 5.00098z" />
    <glyph glyph-name="backslash" unicode="\" 
d="M155 173h-41v40h41v-40zM155 95h-41v39h41v-39zM155 16h-41v39h41v-39zM377 173h-202v40h202v-40zM377 95h-202v39h202v-39zM377 16h-202v39h202v-39zM403 327c2 -2 4.66992 -4.33398 8.00293 -7.00098s5.66602 -5 6.99902 -7l-7 5c-4.66699 4 -7.33398 7 -8.00098 9
c2 -5.33301 8.5 -12.833 19.5 -22.5s17.5 -15.5 19.5 -17.5c10.667 -13.333 16 -25 16 -35v-295c0 -22 -4.33301 -37.333 -13 -46s-24.334 -13 -47.001 -13h-284c-22.667 0 -38.334 4.33301 -47.001 13s-13 24 -13 46v394c0 22 4.33301 37.333 13 46s24.334 13 47.001 13
h148c28 0 45 -1.66699 51 -5c10.667 -5.33301 20.667 -11.666 30 -18.999s21 -18.5 35 -33.5s22.333 -23.5 25 -25.5zM418.003 -43.001l0.000976562 274.999c0 6 -2.33301 10.667 -7 14s-9.33398 5.16602 -14.001 5.49902s-11.334 0.5 -20.001 0.5h-60
c-5.33301 0 -10.166 2 -14.499 6s-6.5 8.66699 -6.5 14v60c0 22.667 -4.66699 35.334 -14 38.001h-168c-12 0 -18.333 -1 -19 -3c-0.666992 -1.33301 -1 -6.66602 -1 -15.999v-394c0 -11.333 0.666992 -17.5 2 -18.5s7.33301 -1.5 18 -1.5h284c10.667 0 16.667 0.5 18 1.5
s2 7.16699 2 18.5z" />
    <glyph glyph-name="bracketright" unicode="]" 
d="M511 237c2 -8 0.333008 -14.667 -5 -20l-58 -54l48 -11c8 -2 13 -6.66699 15 -14c2 -8 0.333008 -14.667 -5 -20l-207 -193c-5.33301 -4 -10 -6 -14 -6c-0.666992 0 -1.5 0.166992 -2.5 0.5s-1.83301 0.5 -2.5 0.5l-265 69c-8 2 -13 7 -15 15
c-2 7.33301 0.333008 13.666 7 18.999l61 51l-53 13c-7.33301 2 -12 7 -14 15s0 14.667 6 20l57 46l-49 13c-7.33301 2 -12 7 -14 15c-2 7.33301 0.333008 14 7 20l219 168c4 3.33301 9 4.33301 15 3l254 -43c8 -1.33301 13 -5.66602 15 -12.999
c2 -8 0.333008 -14.667 -5 -20l-53 -50l44 -10c7.33301 -2 12 -6.66699 14 -14zM244 347l-180 -138l216 -56l170 159zM452 122l-39.001 9.00098l-114 -108c-4.66699 -3.33301 -9 -5 -13 -5c-0.666992 0 -1.5 0.166992 -2.5 0.5s-1.83301 0.5 -2.5 0.5l-167 43
c-1.33301 -2.66699 -2.66602 -4.33398 -3.99902 -5.00098l-48 -40l218 -56zM279.999 60.001l171.999 161l-34 7l-119 -111c-5.33301 -4 -9.66602 -6 -12.999 -6c-0.666992 0 -1.5 0.166992 -2.5 0.5s-1.83301 0.5 -2.5 0.5l-170 44l-1 -1l-48 -39z" />
    <glyph glyph-name="a" unicode="a" 
d="M217 269c-25.333 -15.333 -37.999 -41.9961 -37.999 -79.9961v-185c0 -12 -5.66699 -19.667 -17 -23c-12 -4 -26 -6 -42 -6c-27.333 0 -49.833 5.5 -67.5 16.5s-26.5 24.833 -26.5 41.5v237c-1.33301 28.667 10.667 50 36 64c1.33301 0.666992 41 24.667 119 72
c8 5.33301 16.667 5.66602 26 0.999023s14 -12 14 -22v-28c0 -6.66699 -2.5 -12.334 -7.5 -17.001s-11.167 -7 -18.5 -7c-8 0 -15 3.66699 -21 11l-33 -20l-34 -20.5l-19 -11.5c-7.33301 -4.66699 -11 -10.334 -11 -17.001c0 -5.33301 1 -9 3 -11
c1.33301 -1.33301 4 -2 8 -2c10.667 0 25 5 43 15c7.33301 4 23.666 13.833 48.999 29.5l70 43.5c21.333 13.333 32.333 20.333 33 21c8.66699 5.33301 17.667 5.66602 27 0.999023c8.66699 -4 13 -11 13 -21c0 -11.333 -3.66699 -19 -11 -23zM471.001 300.004
c7.33301 -3.33301 11 -9.33203 11 -17.999v-251c0 -6.66699 -3 -12 -9 -16c-80 -58.667 -128 -92.667 -144 -102c-13.333 -7.33301 -29 -11 -47 -11c-23.333 0 -44.5 5.33301 -63.5 16s-28.5 24.667 -28.5 42v235c0 26 11.333 47 34 63
c6.66699 4.66699 28.334 18.834 65.001 42.501s55.334 35.834 56.001 36.501c8 5.33301 16.667 5.66602 26 0.999023s14 -11.667 14 -21v-28c0 -6.66699 -2.5 -12.334 -7.5 -17.001s-11.167 -7 -18.5 -7c-8.66699 0 -15.334 3 -20.001 9l-85 -55
c-10 -6.66699 -15 -14.334 -15 -23.001c0 -1.33301 0.333008 -2.66602 1 -3.99902c0 -2.66699 0.333008 -4.33398 1 -5.00098c4.66699 -4.66699 13.667 -6.16699 27 -4.5s26.666 6.5 39.999 14.5c18 10 65 43.667 141 101c6 5.33301 13.333 6 22 2zM441.001 157.005v39
l-102 -75v-39z" />
    <glyph glyph-name="b" unicode="b" 
d="M188 354c5.33301 -2 8 -6 8 -12v-115c0 -8.66699 -4.33301 -13 -13 -13h-115c-6 0 -10 2.83301 -12 8.5s-1 10.167 3 13.5l38 39l-56 56c-4.66699 4.66699 -4.66699 9 0 13l26 25c4 4 8 4 12 0l57 -56l38 38c4 4 8.66699 5 14 3zM183 95
c8.66699 0 12.999 -3.99902 12.999 -11.999v-115c-3.33301 -13.333 -10.666 -16.333 -21.999 -9l-38 38l-57 -56c-4 -4 -8 -4 -12 0l-26 25c-4.66699 4 -4.66699 8.33301 0 13l56 56l-38 39c-4 3.33301 -5 7.66602 -3 12.999s6 8 12 8h115zM470.999 345.001
c4 -3.33301 4.00098 -7.66699 0.000976562 -13l-56 -56l38 -38c4 -3.33301 5 -7.83301 3 -13.5s-6 -8.5 -12 -8.5h-115c-8.66699 0 -13 4.33301 -13 13v115c3.33301 13.333 10.666 16.333 21.999 9l38 -39l57 57c4.66699 3.33301 9 3.33301 13 0zM471 -21
c4 -5.33301 3.99902 -9.66699 -0.000976562 -13l-25 -25c-4 -4.66699 -8.33301 -4.66699 -13 0l-57 56l-38 -38c-11.333 -7.33301 -18.666 -4.33301 -21.999 9v115c0 8 4.33301 12 13 12h115c6 0 10 -2.83301 12 -8.5s1 -10.167 -3 -13.5l-38 -38z" />
    <glyph glyph-name="c" unicode="c" 
d="M46 232c-5.33301 2 -8 6 -8 12v115c0 8.66699 4.33301 13 13 13h115c6 0 10 -2.83301 12 -8.5s1 -10.167 -3 -13.5l-38 -38l56 -57c4.66699 -4.66699 4.66699 -8.66699 0 -12l-25 -26c-4 -4.66699 -8.33301 -4.66699 -13 0l-57 56l-38 -38c-4 -4 -8.66699 -5 -14 -3z
M51 -62c-8.66699 0 -12.999 4.33301 -12.999 13v115c3.33301 13.333 10.666 16.333 21.999 9l38 -39l57 57c4.66699 4.66699 9 4.66699 13 0l25 -26c4.66699 -4.66699 4.66699 -9 0 -13l-56 -56l38 -38c4 -3.33301 5 -7.83301 3 -13.5s-6 -8.5 -12 -8.5h-115zM319.001 244
c-4 4 -4.00098 8.33301 -0.000976562 13l56 56l-38 38c-4 3.33301 -5 7.83301 -3 13.5s6 8.5 12 8.5h115c8.66699 0 13 -4.33301 13 -13v-114c-3.33301 -13.333 -10.666 -16.333 -21.999 -9l-38 38l-57 -57c-4.66699 -3.33301 -9 -3.33301 -13 0zM319 54
c-4 4.66699 -3.99902 9 0.000976562 13l25 26c4 4.66699 8.33301 4.66699 13 0l57 -57l38 39c11.333 7.33301 18.666 4.33301 21.999 -9v-115c0 -8.66699 -4.33301 -13 -13 -13h-115c-6 0 -10 2.83301 -12 8.5s-1 10.167 3 13.5l38 38z" />
    <glyph glyph-name="d" unicode="d" 
d="M322 92l20.999 -7.00586c12 -4 19.667 -6.83301 23 -8.5s10.5 -5 21.5 -10s18.833 -9.66699 23.5 -14l19.5 -17.5c8.33301 -7.33301 14.5 -15.166 18.5 -23.499s8.33301 -18.166 13 -29.499s8 -24 10 -38s3 -29.333 3 -46h-220h-2h-220c0 22.667 1.5 42.834 4.5 60.501
s8.16699 32.834 15.5 45.501s14.166 23.167 20.499 31.5s15.5 15.833 27.5 22.5s21.167 11.334 27.5 14.001s16.5 6.33398 30.5 11.001l27 9c6.66699 7.33301 10.167 15 10.5 23s-1 14.667 -4 20s-7.83301 12.5 -14.5 21.5s-11 15.5 -13 19.5
c-19.333 33.333 -29 67.666 -29 102.999c0 32 8.83301 59.833 26.5 83.5s41.834 37.834 72.501 42.501c4 0.666992 10 1 18 1h2c8 0 14 -0.333008 18 -1c30.667 -4.66699 54.834 -18.834 72.501 -42.501s26.5 -51.5 26.5 -83.5c0 -35.333 -9.66699 -69.666 -29 -102.999
c-2 -4 -6.33301 -10.5 -13 -19.5s-11.5 -16.167 -14.5 -21.5s-4.33301 -12 -4 -20s3.83301 -15.667 10.5 -23z" />
    <glyph glyph-name="e" unicode="e" 
d="M157 -72l48 117h-160c-12.667 0 -23.334 4.33301 -32.001 13s-13 19 -13 31v250c0 12 4.33301 22.333 13 31s19.334 13 32.001 13h422c12.667 0 23.334 -4.33301 32.001 -13s13 -19 13 -31v-250c0 -12 -4.33301 -22.333 -13 -31s-19.334 -13 -32.001 -13h-172zM45 367
c-7.33301 0 -14 -2.83301 -20 -8.5s-9 -12.167 -9 -19.5v-250c0 -7.33301 3 -13.833 9 -19.5s12.667 -8.5 20 -8.5h185l-32 -77l91 77h178c7.33301 0 13.833 2.83301 19.5 8.5s8.5 12.167 8.5 19.5v250c0 7.33301 -2.83301 13.833 -8.5 19.5s-12.167 8.5 -19.5 8.5h-422z
M158 215c0 12.667 6 19 18 19c12.667 0 19 -6.33301 19 -19s-6.33301 -19 -19 -19c-12 0 -18 6.33301 -18 19zM209 215c0 12.667 6.33301 19 19 19s19 -6.33301 19 -19s-6.33301 -19 -19 -19s-19 6.33301 -19 19zM261 215c0 12.667 6.33301 19 19 19s19 -6.33301 19 -19
s-6.33301 -19 -19 -19s-19 6.33301 -19 19zM313 215c0 12.667 6.33301 19 19 19c12 0 18 -6.33301 18 -19s-6 -19 -18 -19c-12.667 0 -19 6.33301 -19 19z" />
    <glyph glyph-name="f" unicode="f" 
d="M298 -21c10 0 15.002 -4.66699 15.002 -14v-30c0 -9.33301 -5 -14 -15 -14h-12c-6.66699 -12.667 -17.334 -19 -32.001 -19s-25.334 6.33301 -32.001 19h-12c-10 0 -15 4.66699 -15 14v30c0 9.33301 5 14 15 14h88zM196.002 22
c0 8.66699 -4.66602 19.8311 -13.999 33.498s-18.666 29.334 -27.999 47.001s-14 35.834 -14 54.501c0 31.333 11.167 58 33.5 80s49.166 33 80.499 33s58.166 -11 80.499 -33s33.5 -48.667 33.5 -80c0 -24.667 -9.33301 -51.5 -28 -80.5s-28 -47.5 -28 -55.5v-8
c0 -9.33301 -4.66699 -14 -14 -14h-88c-9.33301 0 -14 4.66699 -14 14v9zM254.003 232.997c-20.667 0 -38.335 -7.16797 -53.002 -21.501s-22 -31.833 -22 -52.5c0 -16 4.66699 -30.333 14 -43c0 1.33301 -0.166992 3 -0.5 5s-0.5 3.66699 -0.5 5
c0 26.667 9.5 49.334 28.5 68.001s41.833 28 68.5 28c0.666992 0 1.33398 -0.166992 2.00098 -0.5s1.33398 -0.5 2.00098 -0.5c-12.667 8 -25.667 12 -39 12zM254.002 311.996c-5.33301 0 -10 1.83301 -14 5.5s-6 8.16699 -6 13.5v59c0 5.33301 2 10 6 14s8.66699 6 14 6
s10 -2 14 -6s6 -8.66699 6 -14v-59c0 -5.33301 -2 -9.83301 -6 -13.5s-8.66699 -5.5 -14 -5.5zM489.002 174.996c5.33301 0 9.83301 -2 13.5 -6s5.5 -8.66699 5.5 -14c0 -12.667 -6.33301 -19 -19 -19h-59c-5.33301 0 -10 1.83301 -14 5.5s-6 8.16699 -6 13.5s2 10 6 14
s8.66699 6 14 6h59zM98.002 154.996c0 -5.33301 -2 -9.83301 -6 -13.5s-8.66699 -5.5 -14 -5.5h-59c-12.667 0 -19 6.33301 -19 19c0 5.33301 1.83301 10 5.5 14s8.16699 6 13.5 6h59c5.33301 0 10 -2 14 -6s6 -8.66699 6 -14zM392.002 44.9961l42 -42
c9.33301 -9.33301 9.33301 -18.666 0 -27.999c-3.33301 -3.33301 -8 -5 -14 -5s-10.667 1.66699 -14 5l-41 42c-9.33301 9.33301 -9.33301 18.666 0 27.999c8.66699 8.66699 17.667 8.66699 27 0zM116.002 265.996l-41.999 41c-9.33301 9.33301 -9.33301 18.666 0 27.999
s18.666 9.33301 27.999 0l41 -41c9.33301 -9.33301 9.33301 -18.666 0 -27.999c-4 -4 -8.33301 -6 -13 -6c-5.33301 0 -10 2 -14 6zM116.003 44.9961c9.33301 8.66699 18.333 8.66602 27 -0.000976562c9.33301 -9.33301 9.33301 -18.666 0 -27.999l-41 -41
c-4 -4 -8.66699 -6 -14 -6s-10 2 -14 6c-9.33301 9.33301 -9.33301 18.333 0 27zM378.003 259.995c-4.66699 0 -8.99902 2 -12.999 6c-9.33301 9.33301 -9.33301 18.666 0 27.999l41 41c9.33301 9.33301 18.666 9.33301 27.999 0s9.33301 -18.666 0 -27.999l-42 -41
c-4 -4 -8.66699 -6 -14 -6z" />
    <glyph glyph-name="g" unicode="g" 
d="M298 -21c10 0 15.002 -4.66699 15.002 -14v-30c0 -9.33301 -5 -14 -15 -14h-12c-6.66699 -12.667 -17.334 -19 -32.001 -19s-25.334 6.33301 -32.001 19h-12c-10 0 -15 4.66699 -15 14v30c0 9.33301 5 14 15 14h88zM196.002 22
c0 8.66699 -4.66602 19.8311 -13.999 33.498s-18.666 29.334 -27.999 47.001s-14 35.834 -14 54.501c0 31.333 11.167 58 33.5 80s49.166 33 80.499 33s58.166 -11 80.499 -33s33.5 -48.667 33.5 -80c0 -24.667 -9.33301 -51.5 -28 -80.5s-28 -47.5 -28 -55.5v-8
c0 -9.33301 -4.66699 -14 -14 -14h-88c-9.33301 0 -14 4.66699 -14 14v9zM254.003 232.997c-20.667 0 -38.335 -7.16797 -53.002 -21.501s-22 -31.833 -22 -52.5c0 -16 4.66699 -30.333 14 -43c0 1.33301 -0.166992 3 -0.5 5s-0.5 3.66699 -0.5 5
c0 26.667 9.5 49.334 28.5 68.001s41.833 28 68.5 28c0.666992 0 1.33398 -0.166992 2.00098 -0.5s1.33398 -0.5 2.00098 -0.5c-12.667 8 -25.667 12 -39 12z" />
    <glyph glyph-name="h" unicode="h" 
d="M436 410c26.667 0 46 -6.16699 58 -18.5s18 -31.833 18 -58.5v-359c0 -26.667 -6 -46 -18 -58s-31.333 -18 -58 -18h-360c-26.667 0 -46 6 -58 18s-18 31.333 -18 58v359c0 26.667 6 46.167 18 58.5s31.333 18.5 58 18.5h360zM436 370l-360 0.000976562h-11
c0.666992 0 1.66699 -0.666992 3 -2c1.33301 0 2 -0.333008 2 -1l110 -110h98c10 0 17.667 -0.333008 23 -1s10.166 -3 14.499 -7s6.5 -9.66699 6.5 -17v-34h15c5.33301 0 12.833 4.83301 22.5 14.5s16.834 14.5 21.501 14.5h29v-147h-29c-4.66699 0 -12 4.83301 -22 14.5
s-17.333 14.5 -22 14.5h-10l144 -143c0.666992 0 1 -0.333008 1 -1v-1c0 0.666992 0.166992 2.16699 0.5 4.5s0.5 4.16602 0.5 5.49902v359c0 15.333 -2.33301 25.333 -7 30s-14.667 7 -30 7zM76 -62.999l360 0.000976562h7h-1l-401 402l-1 1v1
c0 -0.666992 -0.166992 -1.83398 -0.5 -3.50098s-0.5 -3.16699 -0.5 -4.5v-359c0 -15.333 2.33301 -25.333 7 -30s14.667 -7 30 -7zM102 51.002v172l172 -172h-172z" />
    <glyph glyph-name="i" unicode="i" 
d="M258 102c32.667 -12 61 -26.3359 85 -43.0029s36 -33.667 36 -51v-14c0 -41.333 -63 -62 -189 -62c-126.667 0 -190 20.667 -190 62v14c0 16.667 12 33.5 36 50.5s52 31.833 84 44.5c8.66699 -22 19 -41.667 31 -59c10.667 24 20.334 41 29.001 51
c-18 2.66699 -32 10.334 -42 23.001c3.33301 8 3 17.333 -1 28c-14.667 14.667 -26.667 33 -36 55s-14 44.333 -14 67c0 34 9.83301 60.5 29.5 79.5s44 28.5 73 28.5s53.167 -9.5 72.5 -28.5s29 -45.5 29 -79.5c0 -22 -4.66699 -44 -14 -66s-21.333 -40.667 -36 -56
c-3.33301 -11.333 -4 -20.666 -2 -27.999c-9.33301 -12.667 -23 -20.334 -41 -23.001c8.66699 -10 18.667 -27 30 -51c4.66699 7.33301 9.66699 15.833 15 25.5s9.16602 17.334 11.499 23.001s3.5 8.83398 3.5 9.50098zM403 369.997
c30.667 0 56.6699 -9.6709 78.0029 -29.0039s32 -42.5 32 -69.5s-10.667 -50.167 -32 -69.5s-47.333 -29 -78 -29c-1.33301 0 -4.33301 -0.333008 -9 -1c-33.333 -16.667 -59 -25 -77 -25c-11.333 0 -19.333 3 -24 9c-6 8 -2.66699 17.333 10 28
c10 8.66699 16.333 15.667 19 21c-6.66699 5.33301 -11 10.333 -13 15c-3.33301 8.66699 -0.833008 14.834 7.5 18.501s14.166 1.16699 17.499 -7.5c1.33301 -1.33301 4.33301 -3.66602 9 -6.99902c2 -1.33301 3.33301 -2.33301 4 -3
c3.33301 -3.33301 4.66602 -7.33301 3.99902 -12c-0.666992 -10.667 -5.33398 -21 -14.001 -31c14.667 4.66699 30 11 46 19l4 2c7.33301 1.33301 12.666 2 15.999 2c22.667 0 42 6.83301 58 20.5s24 30.334 24 50.001s-8 36.334 -24 50.001s-35.333 20.5 -58 20.5
c-25.333 0 -46.333 -8.66699 -63 -26l-4 -4c-5.33301 -7.33301 -11.666 -8 -18.999 -2s-8 12.333 -2 19c2 2.66699 3.66699 4.66699 5 6c22 23.333 49.667 35 83 35z" />
    <glyph glyph-name="j" unicode="j" 
d="M500 222c4 -6 4.66797 -12.332 2.00098 -18.999l-133 -293c-4 -8 -10 -12 -18 -12h-2h-4c-176.667 14 -284 48.333 -322 103c-14.667 20.667 -18.334 43.667 -11.001 69v0v1l0.5 0.5c0.333008 0.333008 0.5 0.666016 0.5 0.999023v1v0.5l146 280c4 8 10.667 11.667 20 11
c8 -1.33301 21.667 -2 41 -2c76 0 141 15 195 45c8 4 15.5 2.83301 22.5 -3.5s8.83301 -13.833 5.5 -22.5l-31 -71c10.667 -2.66699 24.667 -4 42 -4c7.33301 0 13 -3 17 -9s4.33301 -12.333 1 -19l-21 -44c10.667 -2.66699 21.667 -4 33 -4c6.66699 0 12 -3 16 -9z
M424.001 269.001c-10.667 1.33301 -20.001 3.33398 -28.001 6.00098l-87 -200c-1.33301 -2.66699 -3.33301 -5 -6 -7c-27.333 -24 -73.666 -36 -138.999 -36c-26 0 -53.333 1.66699 -82 5c23.333 -10 55.333 -17.333 96 -22s81 -6.33398 121 -5.00098zM188 324.002
l-127 -244c37.333 -5.33301 71.666 -8 102.999 -8c52.667 0 89.334 7.66699 110.001 23l112 256c-50 -18.667 -105.333 -28 -166 -28c-11.333 0 -22 0.333008 -32 1zM339 -61.998l115.001 256c-6.66699 1.33301 -13.667 3 -21 5l-104 -217c-3.33301 -7.33301 -9 -11 -17 -11
c-12 -0.666992 -24 -1 -36 -1c-70.667 0 -129 6.33301 -175 19c51.333 -24.667 130.666 -41.667 237.999 -51zM275.001 181.002c-3.33301 -3.33301 -7.33105 -6.33594 -11.998 -9.00293s-9.16699 -5 -13.5 -7s-9.5 -3.66699 -15.5 -5s-11 -2.33301 -15 -3
s-9.33301 -1.16699 -16 -1.5s-11.667 -0.666016 -15 -0.999023s-8.5 -0.333008 -15.5 0s-11.5 0.5 -13.5 0.5s-6.33301 0.333008 -13 1s-10.334 1 -11.001 1l23 41c4.66699 8.66699 8.5 14.334 11.5 17.001s9.16699 6 18.5 10c1.33301 0 4.16602 0.5 8.49902 1.5
s8 2.16699 11 3.5s4.83301 3 5.5 5c2.66699 6.66699 3.66699 10.334 3 11.001c-2.66699 2 -4.66699 5.33301 -6 10s-1.33301 9 0 13c2 6 4 10.667 6 14s5.66699 7.16602 11 11.499s12.333 6.5 21 6.5c12.667 0.666992 21.667 -2.16602 27 -8.49902s6 -15.5 2 -27.5
c-4 -10 -10 -17.667 -18 -23c-2.66699 -2 -5 -5.66699 -7 -11c-1.33301 -5.33301 5.66699 -8 21 -8c14 0 18.333 -8 13 -24z" />
    <glyph glyph-name="k" unicode="k" 
d="M500 254c4.66699 -3.33301 7.66602 -7.83301 8.99902 -13.5s0.333008 -11.167 -3 -16.5l-211 -311c-7.33301 -10 -16.166 -15 -26.499 -15s-19.5 4 -27.5 12l-124 124c-4 4 -6 9 -6 15s2 11.333 6 16l31 30c4 4 9 6 15 6s11 -2 15 -6l81 -80l175 258
c3.33301 4.66699 8 7.66699 14 9s11.333 0.333008 16 -3zM78.999 66c-4 -4 -5.99902 -9.00195 -5.99902 -15.002s2 -11 6 -15l106 -105c-13.333 -10.667 -22.333 -17.334 -27 -20.001c-14.667 -8.66699 -32.334 -13 -53.001 -13c-25.333 0 -47.833 6.33301 -67.5 19
s-29.5 29.334 -29.5 50.001v285c0 4.66699 1.66699 9.33398 5 14.001c3.33301 18 14.333 34 33 48l135 93c6.66699 4 13.334 4.16699 20.001 0.5s10 -9.16699 10 -16.5v-34c0 -5.33301 -1.83301 -9.83301 -5.5 -13.5s-8.16699 -5.5 -13.5 -5.5
c-11.333 0 -17.666 5.33301 -18.999 16c-60 -40.667 -94.667 -64.5 -104 -71.5s-15 -13.833 -17 -20.5c1.33301 -3.33301 2 -6.66602 2 -9.99902c0 -6.66699 2 -12 6 -16c5.33301 -5.33301 15.166 -6.83301 29.499 -4.5s29.166 8.16602 44.499 17.499
c19.333 11.333 72.333 51 159 119c7.33301 6 15.333 6.83301 24 2.5s13 -11.166 13 -20.499v-182l-75 -113l-78 77c-4 4 -9 6 -15 6s-11.333 -2 -16 -6zM187 182.998v-40l100 77v40z" />
    <glyph glyph-name="l" unicode="l" 
d="M452 -40c0 -21.333 -4.33398 -36.5029 -13.001 -45.5029s-24 -13.5 -46 -13.5h-28c-7.33301 -2 -16.666 -3 -27.999 -3h-272c-22 0 -37.333 4.33301 -46 13s-13 24 -13 46v391c0 21.333 4.33301 36.5 13 45.5s24 13.5 46 13.5h175c5.33301 0 11.5 -2 18.5 -6
s14.667 -9.5 23 -16.5s15.5 -13.5 21.5 -19.5l22 -22.5l17 -17.5l1 -1v0c19.333 -19.333 33 -34.166 41 -44.499s12 -20.166 12 -29.499v-293c0 -31.333 -10.333 -50 -31 -56c21.333 0.666992 36.333 5.33398 45 14.001s13 23.667 13 45v293c0 10 -4 20.167 -12 30.5
s-22 25.166 -42 44.499l-17 17.5c-8.66699 9 -16.167 16.5 -22.5 22.5l-21.5 20c-8 7.33301 -15.5 12.833 -22.5 16.5s-13.167 5.5 -18.5 5.5h29c5.33301 0 11.5 -1.83301 18.5 -5.5s14.667 -9.16699 23 -16.5s15.5 -14 21.5 -20l22 -22.5l17 -17.5h1
c19.333 -19.333 33 -34.166 41 -44.499s12 -20.5 12 -30.5v-293zM336.999 -63.0029c11.333 0 17.499 0.500977 18.499 1.50098s1.5 7.16699 1.5 18.5v274c0 6 -2.16699 10.5 -6.5 13.5s-8.66602 4.66699 -12.999 5s-10.833 0.5 -19.5 0.5h-58c-6 0 -10.833 2 -14.5 6
s-5.5 8.66699 -5.5 14v59c0 8 -0.166992 14 -0.5 18s-1.5 8.16699 -3.5 12.5s-5.33301 7.16602 -10 8.49902h-161c-10.667 0 -16.667 -0.666992 -18 -2s-2 -7.33301 -2 -18v-391c0 -11.333 0.666992 -17.5 2 -18.5s7.33301 -1.5 18 -1.5h272zM454.998 327.998
c19.333 -19.333 33 -34.166 41 -44.499s12 -20.5 12 -30.5v-293c0 -21.333 -4.33301 -36.5 -13 -45.5s-23.667 -13.5 -45 -13.5h-30c22 0 37.333 4.5 46 13.5s13 24.167 13 45.5v293c0 10 -4 20.167 -12 30.5s-22 25.166 -42 44.499l-17 17.5
c-8.66699 9 -16.167 16.5 -22.5 22.5l-21.5 20c-8 7.33301 -15.5 12.833 -22.5 16.5s-13.167 5.5 -18.5 5.5h29c5.33301 0 11.5 -1.83301 18.5 -5.5s14.667 -9.16699 23 -16.5s15.5 -14 21.5 -20l22 -22.5l17 -17.5h1z" />
    <glyph glyph-name="m" unicode="m" 
d="M87 351l36 33l90 -89c20.667 -20.667 35.167 -31 43.5 -31s22.5 10.333 42.5 31l90 89l35 -33l-125 -125c-20 -20.667 -34.167 -31 -42.5 -31s-22.833 10.333 -43.5 31zM425 -43l-36 -33l-90 89c-20.667 20.667 -35.167 31 -43.5 31s-22.5 -10.333 -42.5 -31l-90 -89
l-35 33l125 125c20 20.667 34.333 31 43 31s23 -10.333 43 -31z" />
    <glyph glyph-name="n" unicode="n" 
d="M424 254l-35 -33l-90 89c-20.667 20.667 -35.167 31 -43.5 31s-22.5 -10.333 -42.5 -31l-90 -89l-36 33l126 125c20 20.667 34.167 31 42.5 31s22.833 -10.333 43.5 -31zM88 54l35 33l90 -89c20.667 -20.667 35.167 -31 43.5 -31s22.5 10 42.5 30l90 90l36 -33l-126 -125
c-20 -20.667 -34.167 -31 -42.5 -31s-22.833 10.333 -43.5 31z" />
    <glyph glyph-name="o" unicode="o" 
d="M397 328v-1v1zM397 327c20 -19.333 34.001 -34.1641 42.001 -44.4971s12 -20.166 12 -29.499v-296c0 -10.667 -1.5 -19.834 -4.5 -27.501s-6.66699 -13.667 -11 -18s-10.666 -7.5 -18.999 -9.5s-15.666 -3.16699 -21.999 -3.5s-14.833 -0.5 -25.5 -0.5v40h25
c9.33301 -0.666992 14.666 -0.333984 15.999 0.999023s2 7.33301 2 18v276c0 6 -2.33301 10.5 -7 13.5s-9.16699 4.83301 -13.5 5.5s-10.833 1 -19.5 1h-59c-5.33301 0 -10 1.83301 -14 5.5s-6 8.16699 -6 13.5v60v18c0 4 -1.16699 8.16699 -3.5 12.5
s-5.83301 7.16602 -10.5 8.49902h-163c-10.667 0 -16.667 -0.666992 -18 -2s-2 -7.33301 -2 -18v-394c0 -10.667 0.666992 -16.5 2 -17.5s7.33301 -1.5 18 -1.5h82v-40h-82c-21.333 0 -36.5 4.5 -45.5 13.5s-13.5 24.167 -13.5 45.5v394c0 22 4.5 37.333 13.5 46
s24.167 13 45.5 13h177c7.33301 0 16.666 -3.83301 27.999 -11.5s21.166 -15.5 29.499 -23.5l29.5 -29.5c11.333 -11.667 17 -17.834 17 -18.501zM282.501 159.002c24.333 0 44.332 -9 59.999 -27s22.334 -39 20.001 -63s-14.166 -43 -35.499 -57v-114l-44 20l-44 -20v114
c-22 14 -34 33 -36 57s4.66699 45 20 63s35.166 27 59.499 27zM283 33.002c18.667 0 31.834 7.66699 39.501 23s7.66699 30.5 0 45.5s-20.834 22.5 -39.501 22.5c-11.333 0 -20.833 -3 -28.5 -9s-12.334 -13.5 -14.001 -22.5s-1.66699 -18 0 -27s6.33398 -16.667 14.001 -23
s17.167 -9.5 28.5 -9.5z" />
    <glyph glyph-name="p" unicode="p" 
d="M396 328l-16.999 17.502l-29.5 29.5c-8.33301 8 -18.166 15.833 -29.499 23.5s-20.333 11.5 -27 11.5h-176c-21.333 0 -36.333 -4.33301 -45 -13s-13 -24 -13 -46v-390c0 -22 4.33301 -37.333 13 -46s23.667 -13 45 -13h81h129l-44 20l-44 -20v113
c-21.333 14 -33.166 32.833 -35.499 56.5s4.16699 44.5 19.5 62.5s35.166 27 59.499 27s44.166 -9 59.499 -27s22 -38.833 20 -62.5s-13.667 -42.5 -35 -56.5v-113h41c10.667 0 19.167 0.166992 25.5 0.5s13.666 1.5 21.999 3.5s14.5 5 18.5 9s7.5 9.83301 10.5 17.5
s4.5 17.167 4.5 28.5v293c0 9.33301 -3.83301 19.166 -11.5 29.499s-21.5 25.166 -41.5 44.499zM279.001 216.002c-6.66699 0 -12.5 2.66895 -17.5 8.00195s-7.5 11 -7.5 17v117c0.666992 -0.666992 2.83398 -1.33398 6.50098 -2.00098s6.16699 -1.33398 7.5 -2.00098
s3.66602 -1.5 6.99902 -2.5s5.83301 -2 7.5 -3s3.5 -2.33301 5.5 -4s3.33301 -3.5 4 -5.5s1 -4 1 -6v-60c0 -5.33301 2 -9.83301 6 -13.5s8.66699 -5.5 14 -5.5h58c8 0 15.833 -4.16699 23.5 -12.5s12.5 -16.833 14.5 -25.5h-130zM282.501 126.004
c-18.333 0 -31.333 -7.5 -39 -22.5s-7.66699 -30 0 -45s20.667 -22.5 39 -22.5s31.333 7.5 39 22.5s7.66699 30 0 45s-20.667 22.5 -39 22.5z" />
    <glyph glyph-name="q" unicode="q" 
d="M183 250l0.00195312 -22h-72v22c0 48.667 13 87.5 39 116.5s60.667 43.5 104 43.5s78 -14.5 104 -43.5s39 -67.833 39 -116.5v-22h-72v22c0 9.33301 -0.833008 18.5 -2.5 27.5s-4.83398 18.5 -9.50098 28.5s-12 18 -22 24s-22.333 9 -37 9s-27 -3 -37 -9
s-17.333 -14 -22 -24s-7.83398 -19.5 -9.50098 -28.5s-2.5 -18.167 -2.5 -27.5zM393.002 209c20.667 0 34.999 -2.66699 42.999 -8s12 -16 12 -32v-232c0 -15.333 -4.16699 -25.666 -12.5 -30.999s-21.166 -8 -38.499 -8h-289c-17.333 0 -29.666 2.66699 -36.999 8
s-11 15.666 -11 30.999v232c0 15.333 3.66699 25.833 11 31.5s19.666 8.5 36.999 8.5h285zM273.001 39c13.333 8 20.002 19.333 20.002 34s-6.66699 25.834 -20 33.501s-26.333 7.66699 -39 0s-18.834 -18.834 -18.501 -33.501s6.83301 -26 19.5 -34v-44
c0 -8 3.16699 -13.5 9.5 -16.5s12.666 -3 18.999 0s9.5 8.5 9.5 16.5v44z" />
    <glyph glyph-name=".null" horiz-adv-x="0" 
 />
    <glyph glyph-name="nonmarkingreturn" 
 />
  </font>
</defs>
</svg>
